<svg width="72" height="50" viewBox="0 0 72 50" fill="none" xmlns="http://www.w3.org/2000/svg">
<rect width="72" height="50" rx="6" fill="#E5E7EB"/>
<path d="M46 11H41V19.18C40.69 19.07 40.35 19 40 19C38.34 19 37 20.34 37 22C37 23.66 38.34 25 40 25C41.66 25 43 23.66 43 22V13H46V11ZM39 11H27V13H39V11ZM39 15H27V17H39V15ZM35 19H27V21H35V19Z" fill="#83858B"/>
<path d="M18.704 41.108C17.872 41.108 17.16 40.932 16.568 40.58C15.976 40.228 15.52 39.728 15.2 39.08C14.888 38.432 14.732 37.66 14.732 36.764C14.732 35.876 14.888 35.108 15.2 34.46C15.52 33.812 15.976 33.312 16.568 32.96C17.16 32.608 17.872 32.432 18.704 32.432C19.288 32.432 19.824 32.524 20.312 32.708C20.808 32.892 21.228 33.16 21.572 33.512L21.188 34.316C20.82 33.972 20.436 33.724 20.036 33.572C19.644 33.412 19.208 33.332 18.728 33.332C17.776 33.332 17.048 33.632 16.544 34.232C16.04 34.832 15.788 35.676 15.788 36.764C15.788 37.86 16.04 38.708 16.544 39.308C17.048 39.908 17.776 40.208 18.728 40.208C19.208 40.208 19.644 40.132 20.036 39.98C20.436 39.82 20.82 39.568 21.188 39.224L21.572 40.028C21.228 40.372 20.808 40.64 20.312 40.832C19.824 41.016 19.288 41.108 18.704 41.108ZM24.9883 41.108C24.4203 41.108 23.9283 40.984 23.5123 40.736C23.0963 40.488 22.7723 40.14 22.5403 39.692C22.3163 39.236 22.2043 38.7 22.2043 38.084C22.2043 37.468 22.3163 36.936 22.5403 36.488C22.7723 36.032 23.0963 35.68 23.5123 35.432C23.9283 35.184 24.4203 35.06 24.9883 35.06C25.5483 35.06 26.0363 35.184 26.4523 35.432C26.8763 35.68 27.2003 36.032 27.4243 36.488C27.6563 36.936 27.7723 37.468 27.7723 38.084C27.7723 38.7 27.6563 39.236 27.4243 39.692C27.2003 40.14 26.8763 40.488 26.4523 40.736C26.0363 40.984 25.5483 41.108 24.9883 41.108ZM24.9883 40.328C25.5323 40.328 25.9683 40.136 26.2963 39.752C26.6243 39.36 26.7883 38.804 26.7883 38.084C26.7883 37.356 26.6243 36.8 26.2963 36.416C25.9683 36.032 25.5323 35.84 24.9883 35.84C24.4363 35.84 23.9963 36.032 23.6683 36.416C23.3483 36.8 23.1883 37.356 23.1883 38.084C23.1883 38.804 23.3483 39.36 23.6683 39.752C23.9963 40.136 24.4363 40.328 24.9883 40.328ZM31.2963 41.108C29.8963 41.108 29.1963 40.336 29.1963 38.792V35.168H30.1683V38.78C30.1683 39.3 30.2723 39.684 30.4803 39.932C30.6963 40.18 31.0323 40.304 31.4883 40.304C31.9843 40.304 32.3883 40.14 32.7003 39.812C33.0123 39.476 33.1683 39.032 33.1683 38.48V35.168H34.1403V41H33.1923V40.016C33.0083 40.368 32.7483 40.64 32.4123 40.832C32.0843 41.016 31.7123 41.108 31.2963 41.108ZM35.9589 41V35.168H36.9069V36.212C37.2189 35.508 37.8589 35.12 38.8269 35.048L39.1749 35.012L39.2469 35.852L38.6349 35.924C38.0829 35.972 37.6629 36.148 37.3749 36.452C37.0869 36.748 36.9429 37.156 36.9429 37.676V41H35.9589ZM42.1691 41.108C41.7131 41.108 41.2811 41.044 40.8731 40.916C40.4651 40.788 40.1291 40.608 39.8651 40.376L40.1771 39.692C40.4651 39.924 40.7811 40.096 41.1251 40.208C41.4771 40.312 41.8331 40.364 42.1931 40.364C42.6491 40.364 42.9931 40.28 43.2251 40.112C43.4571 39.944 43.5731 39.716 43.5731 39.428C43.5731 39.204 43.4971 39.028 43.3451 38.9C43.1931 38.764 42.9531 38.66 42.6251 38.588L41.5331 38.348C40.5411 38.132 40.0451 37.62 40.0451 36.812C40.0451 36.284 40.2531 35.86 40.6691 35.54C41.0931 35.22 41.6451 35.06 42.3251 35.06C42.7251 35.06 43.1051 35.124 43.4651 35.252C43.8331 35.372 44.1371 35.552 44.3771 35.792L44.0531 36.476C43.8211 36.26 43.5491 36.096 43.2371 35.984C42.9331 35.864 42.6291 35.804 42.3251 35.804C41.8771 35.804 41.5371 35.892 41.3051 36.068C41.0731 36.244 40.9571 36.476 40.9571 36.764C40.9571 37.212 41.2531 37.5 41.8451 37.628L42.9371 37.856C43.4491 37.968 43.8371 38.148 44.1011 38.396C44.3651 38.636 44.4971 38.964 44.4971 39.38C44.4971 39.916 44.2851 40.34 43.8611 40.652C43.4371 40.956 42.8731 41.108 42.1691 41.108ZM48.6064 41.108C47.6864 41.108 46.9584 40.84 46.4224 40.304C45.8864 39.76 45.6184 39.024 45.6184 38.096C45.6184 37.496 45.7384 36.968 45.9784 36.512C46.2184 36.048 46.5464 35.692 46.9624 35.444C47.3864 35.188 47.8744 35.06 48.4264 35.06C49.2184 35.06 49.8384 35.316 50.2864 35.828C50.7344 36.332 50.9584 37.028 50.9584 37.916V38.288H46.5664C46.5984 38.952 46.7904 39.46 47.1424 39.812C47.4944 40.156 47.9824 40.328 48.6064 40.328C48.9584 40.328 49.2944 40.276 49.6144 40.172C49.9344 40.06 50.2384 39.88 50.5264 39.632L50.8624 40.316C50.5984 40.564 50.2624 40.76 49.8544 40.904C49.4464 41.04 49.0304 41.108 48.6064 41.108ZM48.4504 35.78C47.8984 35.78 47.4624 35.952 47.1424 36.296C46.8224 36.64 46.6344 37.092 46.5784 37.652H50.1184C50.0944 37.06 49.9384 36.6 49.6504 36.272C49.3704 35.944 48.9704 35.78 48.4504 35.78ZM54.3331 41.108C53.8771 41.108 53.4451 41.044 53.0371 40.916C52.6291 40.788 52.2931 40.608 52.0291 40.376L52.3411 39.692C52.6291 39.924 52.9451 40.096 53.2891 40.208C53.6411 40.312 53.9971 40.364 54.3571 40.364C54.8131 40.364 55.1571 40.28 55.3891 40.112C55.6211 39.944 55.7371 39.716 55.7371 39.428C55.7371 39.204 55.6611 39.028 55.5091 38.9C55.3571 38.764 55.1171 38.66 54.7891 38.588L53.6971 38.348C52.7051 38.132 52.2091 37.62 52.2091 36.812C52.2091 36.284 52.4171 35.86 52.8331 35.54C53.2571 35.22 53.8091 35.06 54.4891 35.06C54.8891 35.06 55.2691 35.124 55.6291 35.252C55.9971 35.372 56.3011 35.552 56.5411 35.792L56.2171 36.476C55.9851 36.26 55.7131 36.096 55.4011 35.984C55.0971 35.864 54.7931 35.804 54.4891 35.804C54.0411 35.804 53.7011 35.892 53.4691 36.068C53.2371 36.244 53.1211 36.476 53.1211 36.764C53.1211 37.212 53.4171 37.5 54.0091 37.628L55.1011 37.856C55.6131 37.968 56.0011 38.148 56.2651 38.396C56.5291 38.636 56.6611 38.964 56.6611 39.38C56.6611 39.916 56.4491 40.34 56.0251 40.652C55.6011 40.956 55.0371 41.108 54.3331 41.108Z" fill="#83858B"/>
</svg>
