<svg width="72" height="50" viewBox="0 0 72 50" fill="none" xmlns="http://www.w3.org/2000/svg">
<rect width="72" height="50" rx="6" fill="#FEDFE1"/>
<path d="M43 10V12H39V10H43ZM33 10V16H29V10H33ZM43 18V24H39V18H43ZM33 22V24H29V22H33ZM45 8H37V14H45V8ZM35 8H27V18H35V8ZM45 16H37V26H45V16ZM35 20H27V26H35V20Z" fill="#901E75"/>
<path d="M20.544 41V32.54H21.528V36.284H26.604V32.54H27.588V41H26.604V37.136H21.528V41H20.544ZM31.9649 41.108C31.3969 41.108 30.9049 40.984 30.4889 40.736C30.0729 40.488 29.7489 40.14 29.5169 39.692C29.2929 39.236 29.1809 38.7 29.1809 38.084C29.1809 37.468 29.2929 36.936 29.5169 36.488C29.7489 36.032 30.0729 35.68 30.4889 35.432C30.9049 35.184 31.3969 35.06 31.9649 35.06C32.5249 35.06 33.0129 35.184 33.4289 35.432C33.8529 35.68 34.1769 36.032 34.4009 36.488C34.6329 36.936 34.7489 37.468 34.7489 38.084C34.7489 38.7 34.6329 39.236 34.4009 39.692C34.1769 40.14 33.8529 40.488 33.4289 40.736C33.0129 40.984 32.5249 41.108 31.9649 41.108ZM31.9649 40.328C32.5089 40.328 32.9449 40.136 33.2729 39.752C33.6009 39.36 33.7649 38.804 33.7649 38.084C33.7649 37.356 33.6009 36.8 33.2729 36.416C32.9449 36.032 32.5089 35.84 31.9649 35.84C31.4129 35.84 30.9729 36.032 30.6449 36.416C30.3249 36.8 30.1649 37.356 30.1649 38.084C30.1649 38.804 30.3249 39.36 30.6449 39.752C30.9729 40.136 31.4129 40.328 31.9649 40.328ZM36.2329 41V35.168H37.1809V36.152C37.3569 35.8 37.6009 35.532 37.9129 35.348C38.2249 35.156 38.5889 35.06 39.0049 35.06C39.9169 35.06 40.5009 35.456 40.7569 36.248C40.9329 35.88 41.1929 35.592 41.5369 35.384C41.8809 35.168 42.2769 35.06 42.7249 35.06C44.0209 35.06 44.6689 35.828 44.6689 37.364V41H43.6969V37.412C43.6969 36.876 43.6009 36.484 43.4089 36.236C43.2249 35.98 42.9169 35.852 42.4849 35.852C42.0129 35.852 41.6369 36.02 41.3569 36.356C41.0769 36.692 40.9369 37.14 40.9369 37.7V41H39.9649V37.412C39.9649 36.876 39.8689 36.484 39.6769 36.236C39.4929 35.98 39.1849 35.852 38.7529 35.852C38.2729 35.852 37.8929 36.02 37.6129 36.356C37.3409 36.692 37.2049 37.14 37.2049 37.7V41H36.2329ZM49.1142 41.108C48.1942 41.108 47.4662 40.84 46.9302 40.304C46.3942 39.76 46.1262 39.024 46.1262 38.096C46.1262 37.496 46.2462 36.968 46.4862 36.512C46.7262 36.048 47.0542 35.692 47.4702 35.444C47.8942 35.188 48.3822 35.06 48.9342 35.06C49.7262 35.06 50.3462 35.316 50.7942 35.828C51.2422 36.332 51.4662 37.028 51.4662 37.916V38.288H47.0742C47.1062 38.952 47.2982 39.46 47.6502 39.812C48.0022 40.156 48.4902 40.328 49.1142 40.328C49.4662 40.328 49.8022 40.276 50.1222 40.172C50.4422 40.06 50.7462 39.88 51.0342 39.632L51.3702 40.316C51.1062 40.564 50.7702 40.76 50.3622 40.904C49.9542 41.04 49.5382 41.108 49.1142 41.108ZM48.9582 35.78C48.4062 35.78 47.9702 35.952 47.6502 36.296C47.3302 36.64 47.1422 37.092 47.0862 37.652H50.6262C50.6022 37.06 50.4462 36.6 50.1582 36.272C49.8782 35.944 49.4782 35.78 48.9582 35.78Z" fill="#901E75"/>
</svg>
