<svg width="72" height="50" viewBox="0 0 72 50" fill="none" xmlns="http://www.w3.org/2000/svg">
<path d="M41 13L39.6 14.4L41.2 16H33V18H41.2L39.6 19.6L41 21L45 17L41 13ZM29 10H36V8H29C27.9 8 27 8.9 27 10V24C27 25.1 27.9 26 29 26H36V24H29V10Z" fill="#83858B"/>
<path d="M18.044 41V32.54H19.028V40.136H23.336V41H18.044ZM26.793 41.108C26.225 41.108 25.733 40.984 25.317 40.736C24.901 40.488 24.577 40.14 24.345 39.692C24.121 39.236 24.009 38.7 24.009 38.084C24.009 37.468 24.121 36.936 24.345 36.488C24.577 36.032 24.901 35.68 25.317 35.432C25.733 35.184 26.225 35.06 26.793 35.06C27.353 35.06 27.841 35.184 28.257 35.432C28.681 35.68 29.005 36.032 29.229 36.488C29.461 36.936 29.577 37.468 29.577 38.084C29.577 38.7 29.461 39.236 29.229 39.692C29.005 40.14 28.681 40.488 28.257 40.736C27.841 40.984 27.353 41.108 26.793 41.108ZM26.793 40.328C27.337 40.328 27.773 40.136 28.101 39.752C28.429 39.36 28.593 38.804 28.593 38.084C28.593 37.356 28.429 36.8 28.101 36.416C27.773 36.032 27.337 35.84 26.793 35.84C26.241 35.84 25.801 36.032 25.473 36.416C25.153 36.8 24.993 37.356 24.993 38.084C24.993 38.804 25.153 39.36 25.473 39.752C25.801 40.136 26.241 40.328 26.793 40.328ZM33.617 43.268C33.113 43.268 32.637 43.2 32.189 43.064C31.749 42.936 31.357 42.74 31.013 42.476L31.337 41.768C31.697 42.024 32.053 42.208 32.405 42.32C32.765 42.432 33.153 42.488 33.569 42.488C34.721 42.488 35.297 41.896 35.297 40.712V39.68C35.129 40.048 34.865 40.34 34.505 40.556C34.153 40.764 33.749 40.868 33.293 40.868C32.757 40.868 32.293 40.744 31.901 40.496C31.509 40.248 31.205 39.908 30.989 39.476C30.781 39.036 30.677 38.528 30.677 37.952C30.677 37.376 30.781 36.872 30.989 36.44C31.205 36 31.509 35.66 31.901 35.42C32.293 35.18 32.757 35.06 33.293 35.06C33.749 35.06 34.153 35.164 34.505 35.372C34.865 35.58 35.129 35.864 35.297 36.224V35.168H36.245V40.58C36.245 41.476 36.021 42.148 35.573 42.596C35.133 43.044 34.481 43.268 33.617 43.268ZM33.473 40.076C34.033 40.076 34.477 39.884 34.805 39.5C35.133 39.116 35.297 38.6 35.297 37.952C35.297 37.304 35.133 36.792 34.805 36.416C34.477 36.032 34.033 35.84 33.473 35.84C32.921 35.84 32.481 36.032 32.153 36.416C31.825 36.792 31.661 37.304 31.661 37.952C31.661 38.6 31.825 39.116 32.153 39.5C32.481 39.884 32.921 40.076 33.473 40.076ZM40.4923 41.108C39.9243 41.108 39.4323 40.984 39.0163 40.736C38.6003 40.488 38.2763 40.14 38.0443 39.692C37.8203 39.236 37.7083 38.7 37.7083 38.084C37.7083 37.468 37.8203 36.936 38.0443 36.488C38.2763 36.032 38.6003 35.68 39.0163 35.432C39.4323 35.184 39.9243 35.06 40.4923 35.06C41.0523 35.06 41.5403 35.184 41.9563 35.432C42.3803 35.68 42.7043 36.032 42.9283 36.488C43.1603 36.936 43.2763 37.468 43.2763 38.084C43.2763 38.7 43.1603 39.236 42.9283 39.692C42.7043 40.14 42.3803 40.488 41.9563 40.736C41.5403 40.984 41.0523 41.108 40.4923 41.108ZM40.4923 40.328C41.0363 40.328 41.4723 40.136 41.8003 39.752C42.1283 39.36 42.2923 38.804 42.2923 38.084C42.2923 37.356 42.1283 36.8 41.8003 36.416C41.4723 36.032 41.0363 35.84 40.4923 35.84C39.9403 35.84 39.5003 36.032 39.1723 36.416C38.8523 36.8 38.6923 37.356 38.6923 38.084C38.6923 38.804 38.8523 39.36 39.1723 39.752C39.5003 40.136 39.9403 40.328 40.4923 40.328ZM46.8002 41.108C45.4002 41.108 44.7002 40.336 44.7002 38.792V35.168H45.6722V38.78C45.6722 39.3 45.7762 39.684 45.9842 39.932C46.2002 40.18 46.5362 40.304 46.9922 40.304C47.4882 40.304 47.8922 40.14 48.2042 39.812C48.5162 39.476 48.6722 39.032 48.6722 38.48V35.168H49.6442V41H48.6962V40.016C48.5122 40.368 48.2522 40.64 47.9162 40.832C47.5882 41.016 47.2162 41.108 46.8002 41.108ZM53.8028 41.108C53.1148 41.108 52.5988 40.928 52.2548 40.568C51.9108 40.2 51.7388 39.672 51.7388 38.984V35.924H50.5988V35.168H51.7388V33.38H52.7108V35.168H54.5588V35.924H52.7108V38.888C52.7108 39.344 52.8068 39.692 52.9988 39.932C53.1908 40.164 53.5028 40.28 53.9348 40.28C54.0628 40.28 54.1908 40.264 54.3188 40.232C54.4468 40.2 54.5628 40.168 54.6668 40.136L54.8348 40.88C54.7308 40.936 54.5788 40.988 54.3788 41.036C54.1788 41.084 53.9868 41.108 53.8028 41.108Z" fill="#83858B"/>
</svg>
