<svg width="232" height="98" viewBox="0 0 232 98" fill="none" xmlns="http://www.w3.org/2000/svg">
<rect width="232" height="98" rx="6" fill="white"/>
<rect x="16" y="23" width="32" height="32" rx="16" fill="#B2EECF"/>
<path d="M35.6364 38.4545C37.1455 38.4545 38.3546 37.2364 38.3546 35.7273C38.3546 34.2182 37.1455 33 35.6364 33C34.1273 33 32.9091 34.2182 32.9091 35.7273C32.9091 37.2364 34.1273 38.4545 35.6364 38.4545ZM28.3637 38.4545C29.8727 38.4545 31.0818 37.2364 31.0818 35.7273C31.0818 34.2182 29.8727 33 28.3637 33C26.8546 33 25.6364 34.2182 25.6364 35.7273C25.6364 37.2364 26.8546 38.4545 28.3637 38.4545ZM28.3637 40.2727C26.2455 40.2727 22 41.3364 22 43.4545V45.7273H34.7273V43.4545C34.7273 41.3364 30.4818 40.2727 28.3637 40.2727ZM35.6364 40.2727C35.3727 40.2727 35.0727 40.2909 34.7546 40.3182C35.8091 41.0818 36.5455 42.1091 36.5455 43.4545V45.7273H42V43.4545C42 41.3364 37.7546 40.2727 35.6364 40.2727Z" fill="black"/>
<path d="M66.728 38V36.46H70.27V24.668L67.476 26.428L66.706 25.086L70.776 22.49H72.074V36.46H75.396V38H66.728ZM79.1714 38V36.636L84.4734 30.916C85.2214 30.0947 85.7567 29.3467 86.0794 28.672C86.4167 27.9973 86.5854 27.308 86.5854 26.604C86.5854 24.8 85.5367 23.898 83.4394 23.898C81.8701 23.898 80.4841 24.4847 79.2814 25.658L78.5994 24.25C79.1714 23.6633 79.8974 23.194 80.7774 22.842C81.6721 22.4753 82.6107 22.292 83.5934 22.292C85.1481 22.292 86.3361 22.6587 87.1574 23.392C87.9934 24.1107 88.4114 25.1373 88.4114 26.472C88.4114 27.396 88.1841 28.3053 87.7294 29.2C87.2747 30.08 86.5781 31.0187 85.6394 32.016L81.4814 36.46H89.0494V38H79.1714Z" fill="#212529"/>
<path d="M67.252 58.108C66.564 58.108 66.048 57.928 65.704 57.568C65.36 57.2 65.188 56.672 65.188 55.984V52.924H64.048V52.168H65.188V50.38H66.16V52.168H68.008V52.924H66.16V55.888C66.16 56.344 66.256 56.692 66.448 56.932C66.64 57.164 66.952 57.28 67.384 57.28C67.512 57.28 67.64 57.264 67.768 57.232C67.896 57.2 68.012 57.168 68.116 57.136L68.284 57.88C68.18 57.936 68.028 57.988 67.828 58.036C67.628 58.084 67.436 58.108 67.252 58.108ZM71.4727 58.108C70.9047 58.108 70.4127 57.984 69.9967 57.736C69.5807 57.488 69.2567 57.14 69.0247 56.692C68.8007 56.236 68.6887 55.7 68.6887 55.084C68.6887 54.468 68.8007 53.936 69.0247 53.488C69.2567 53.032 69.5807 52.68 69.9967 52.432C70.4127 52.184 70.9047 52.06 71.4727 52.06C72.0327 52.06 72.5207 52.184 72.9367 52.432C73.3607 52.68 73.6847 53.032 73.9087 53.488C74.1407 53.936 74.2567 54.468 74.2567 55.084C74.2567 55.7 74.1407 56.236 73.9087 56.692C73.6847 57.14 73.3607 57.488 72.9367 57.736C72.5207 57.984 72.0327 58.108 71.4727 58.108ZM71.4727 57.328C72.0167 57.328 72.4527 57.136 72.7807 56.752C73.1087 56.36 73.2727 55.804 73.2727 55.084C73.2727 54.356 73.1087 53.8 72.7807 53.416C72.4527 53.032 72.0167 52.84 71.4727 52.84C70.9207 52.84 70.4807 53.032 70.1527 53.416C69.8327 53.8 69.6727 54.356 69.6727 55.084C69.6727 55.804 69.8327 56.36 70.1527 56.752C70.4807 57.136 70.9207 57.328 71.4727 57.328ZM77.9981 58.108C77.3101 58.108 76.7941 57.928 76.4501 57.568C76.1061 57.2 75.9341 56.672 75.9341 55.984V52.924H74.7941V52.168H75.9341V50.38H76.9061V52.168H78.7541V52.924H76.9061V55.888C76.9061 56.344 77.0021 56.692 77.1941 56.932C77.3861 57.164 77.6981 57.28 78.1301 57.28C78.2581 57.28 78.3861 57.264 78.5141 57.232C78.6421 57.2 78.7581 57.168 78.8621 57.136L79.0301 57.88C78.9261 57.936 78.7741 57.988 78.5741 58.036C78.3741 58.084 78.1821 58.108 77.9981 58.108ZM81.6894 58.108C81.2894 58.108 80.9294 58.032 80.6094 57.88C80.2974 57.72 80.0494 57.504 79.8654 57.232C79.6814 56.96 79.5894 56.656 79.5894 56.32C79.5894 55.896 79.6974 55.56 79.9134 55.312C80.1374 55.064 80.5014 54.888 81.0054 54.784C81.5174 54.672 82.2134 54.616 83.0934 54.616H83.4774V54.244C83.4774 53.748 83.3734 53.392 83.1654 53.176C82.9654 52.952 82.6414 52.84 82.1934 52.84C81.8414 52.84 81.5014 52.892 81.1734 52.996C80.8454 53.092 80.5094 53.252 80.1654 53.476L79.8294 52.768C80.1334 52.552 80.5014 52.38 80.9334 52.252C81.3734 52.124 81.7934 52.06 82.1934 52.06C82.9454 52.06 83.5014 52.244 83.8614 52.612C84.2294 52.98 84.4134 53.552 84.4134 54.328V58H83.5014V56.992C83.3494 57.336 83.1134 57.608 82.7934 57.808C82.4814 58.008 82.1134 58.108 81.6894 58.108ZM81.8454 57.376C82.3254 57.376 82.7174 57.212 83.0214 56.884C83.3254 56.548 83.4774 56.124 83.4774 55.612V55.252H83.1054C82.4574 55.252 81.9454 55.284 81.5694 55.348C81.2014 55.404 80.9414 55.508 80.7894 55.66C80.6454 55.804 80.5734 56.004 80.5734 56.26C80.5734 56.588 80.6854 56.856 80.9094 57.064C81.1414 57.272 81.4534 57.376 81.8454 57.376ZM88.0047 58.108C87.4127 58.108 86.9647 57.936 86.6607 57.592C86.3647 57.24 86.2167 56.732 86.2167 56.068V49.54H87.1887V55.996C87.1887 56.852 87.5287 57.28 88.2087 57.28C88.4087 57.28 88.5887 57.256 88.7487 57.208L88.7247 58.024C88.4767 58.08 88.2367 58.108 88.0047 58.108ZM92.8495 58V52.168H93.7975V53.164C93.9895 52.796 94.2615 52.52 94.6135 52.336C94.9655 52.152 95.3615 52.06 95.8015 52.06C97.1855 52.06 97.8775 52.828 97.8775 54.364V58H96.9055V54.424C96.9055 53.88 96.7975 53.484 96.5815 53.236C96.3735 52.98 96.0375 52.852 95.5735 52.852C95.0375 52.852 94.6095 53.02 94.2895 53.356C93.9775 53.684 93.8215 54.124 93.8215 54.676V58H92.8495ZM101.734 58.108C100.334 58.108 99.6338 57.336 99.6338 55.792V52.168H100.606V55.78C100.606 56.3 100.71 56.684 100.918 56.932C101.134 57.18 101.47 57.304 101.926 57.304C102.422 57.304 102.826 57.14 103.138 56.812C103.45 56.476 103.606 56.032 103.606 55.48V52.168H104.578V58H103.63V57.016C103.446 57.368 103.186 57.64 102.85 57.832C102.522 58.016 102.15 58.108 101.734 58.108ZM106.42 58V52.168H107.368V53.152C107.544 52.8 107.788 52.532 108.1 52.348C108.412 52.156 108.776 52.06 109.192 52.06C110.104 52.06 110.688 52.456 110.944 53.248C111.12 52.88 111.38 52.592 111.724 52.384C112.068 52.168 112.464 52.06 112.912 52.06C114.208 52.06 114.856 52.828 114.856 54.364V58H113.884V54.412C113.884 53.876 113.788 53.484 113.596 53.236C113.412 52.98 113.104 52.852 112.672 52.852C112.2 52.852 111.824 53.02 111.544 53.356C111.264 53.692 111.124 54.14 111.124 54.7V58H110.152V54.412C110.152 53.876 110.056 53.484 109.864 53.236C109.68 52.98 109.372 52.852 108.94 52.852C108.46 52.852 108.08 53.02 107.8 53.356C107.528 53.692 107.392 54.14 107.392 54.7V58H106.42ZM119.626 58.108C119.162 58.108 118.754 58.004 118.402 57.796C118.058 57.588 117.798 57.304 117.622 56.944V58H116.674V49.54H117.646V53.176C117.814 52.832 118.074 52.56 118.426 52.36C118.778 52.16 119.178 52.06 119.626 52.06C120.146 52.06 120.598 52.184 120.982 52.432C121.374 52.672 121.674 53.02 121.882 53.476C122.098 53.924 122.206 54.46 122.206 55.084C122.206 55.7 122.098 56.236 121.882 56.692C121.674 57.14 121.374 57.488 120.982 57.736C120.598 57.984 120.146 58.108 119.626 58.108ZM119.422 57.328C119.966 57.328 120.402 57.136 120.73 56.752C121.058 56.36 121.222 55.804 121.222 55.084C121.222 54.356 121.058 53.8 120.73 53.416C120.402 53.032 119.966 52.84 119.422 52.84C118.878 52.84 118.442 53.032 118.114 53.416C117.786 53.8 117.622 54.356 117.622 55.084C117.622 55.804 117.786 56.36 118.114 56.752C118.442 57.136 118.878 57.328 119.422 57.328ZM126.298 58.108C125.378 58.108 124.65 57.84 124.114 57.304C123.578 56.76 123.31 56.024 123.31 55.096C123.31 54.496 123.43 53.968 123.67 53.512C123.91 53.048 124.238 52.692 124.654 52.444C125.078 52.188 125.566 52.06 126.118 52.06C126.91 52.06 127.53 52.316 127.978 52.828C128.426 53.332 128.65 54.028 128.65 54.916V55.288H124.258C124.29 55.952 124.482 56.46 124.834 56.812C125.186 57.156 125.674 57.328 126.298 57.328C126.65 57.328 126.986 57.276 127.306 57.172C127.626 57.06 127.93 56.88 128.218 56.632L128.554 57.316C128.29 57.564 127.954 57.76 127.546 57.904C127.138 58.04 126.722 58.108 126.298 58.108ZM126.142 52.78C125.59 52.78 125.154 52.952 124.834 53.296C124.514 53.64 124.326 54.092 124.27 54.652H127.81C127.786 54.06 127.63 53.6 127.342 53.272C127.062 52.944 126.662 52.78 126.142 52.78ZM130.057 58V52.168H131.005V53.212C131.317 52.508 131.957 52.12 132.925 52.048L133.273 52.012L133.345 52.852L132.733 52.924C132.181 52.972 131.761 53.148 131.473 53.452C131.185 53.748 131.041 54.156 131.041 54.676V58H130.057ZM139.863 58.108C139.295 58.108 138.803 57.984 138.387 57.736C137.971 57.488 137.647 57.14 137.415 56.692C137.191 56.236 137.079 55.7 137.079 55.084C137.079 54.468 137.191 53.936 137.415 53.488C137.647 53.032 137.971 52.68 138.387 52.432C138.803 52.184 139.295 52.06 139.863 52.06C140.423 52.06 140.911 52.184 141.327 52.432C141.751 52.68 142.075 53.032 142.299 53.488C142.531 53.936 142.647 54.468 142.647 55.084C142.647 55.7 142.531 56.236 142.299 56.692C142.075 57.14 141.751 57.488 141.327 57.736C140.911 57.984 140.423 58.108 139.863 58.108ZM139.863 57.328C140.407 57.328 140.843 57.136 141.171 56.752C141.499 56.36 141.663 55.804 141.663 55.084C141.663 54.356 141.499 53.8 141.171 53.416C140.843 53.032 140.407 52.84 139.863 52.84C139.311 52.84 138.871 53.032 138.543 53.416C138.223 53.8 138.063 54.356 138.063 55.084C138.063 55.804 138.223 56.36 138.543 56.752C138.871 57.136 139.311 57.328 139.863 57.328ZM144.361 58V52.924H143.209V52.168H144.361V51.964C144.361 51.188 144.553 50.6 144.937 50.2C145.329 49.8 145.929 49.576 146.737 49.528L147.205 49.504L147.289 50.248L146.737 50.284C146.241 50.324 145.881 50.472 145.657 50.728C145.441 50.984 145.333 51.356 145.333 51.844V52.168H147.013V52.924H145.333V58H144.361ZM153.599 58.108C153.015 58.108 152.511 57.984 152.087 57.736C151.663 57.48 151.335 57.124 151.103 56.668C150.879 56.204 150.767 55.664 150.767 55.048C150.767 54.12 151.019 53.392 151.523 52.864C152.027 52.328 152.719 52.06 153.599 52.06C153.959 52.06 154.315 52.124 154.667 52.252C155.019 52.38 155.311 52.56 155.543 52.792L155.207 53.5C154.975 53.276 154.719 53.112 154.439 53.008C154.167 52.904 153.907 52.852 153.659 52.852C153.051 52.852 152.583 53.044 152.255 53.428C151.927 53.804 151.763 54.348 151.763 55.06C151.763 55.756 151.927 56.308 152.255 56.716C152.583 57.116 153.051 57.316 153.659 57.316C153.907 57.316 154.167 57.264 154.439 57.16C154.719 57.056 154.975 56.888 155.207 56.656L155.543 57.364C155.311 57.596 155.015 57.78 154.655 57.916C154.303 58.044 153.951 58.108 153.599 58.108ZM158.988 58.108C158.42 58.108 157.928 57.984 157.512 57.736C157.096 57.488 156.772 57.14 156.54 56.692C156.316 56.236 156.204 55.7 156.204 55.084C156.204 54.468 156.316 53.936 156.54 53.488C156.772 53.032 157.096 52.68 157.512 52.432C157.928 52.184 158.42 52.06 158.988 52.06C159.548 52.06 160.036 52.184 160.452 52.432C160.876 52.68 161.2 53.032 161.424 53.488C161.656 53.936 161.772 54.468 161.772 55.084C161.772 55.7 161.656 56.236 161.424 56.692C161.2 57.14 160.876 57.488 160.452 57.736C160.036 57.984 159.548 58.108 158.988 58.108ZM158.988 57.328C159.532 57.328 159.968 57.136 160.296 56.752C160.624 56.36 160.788 55.804 160.788 55.084C160.788 54.356 160.624 53.8 160.296 53.416C159.968 53.032 159.532 52.84 158.988 52.84C158.436 52.84 157.996 53.032 157.668 53.416C157.348 53.8 157.188 54.356 157.188 55.084C157.188 55.804 157.348 56.36 157.668 56.752C157.996 57.136 158.436 57.328 158.988 57.328ZM165.296 58.108C163.896 58.108 163.196 57.336 163.196 55.792V52.168H164.168V55.78C164.168 56.3 164.272 56.684 164.48 56.932C164.696 57.18 165.032 57.304 165.488 57.304C165.984 57.304 166.388 57.14 166.7 56.812C167.012 56.476 167.168 56.032 167.168 55.48V52.168H168.14V58H167.192V57.016C167.008 57.368 166.748 57.64 166.412 57.832C166.084 58.016 165.712 58.108 165.296 58.108ZM169.959 58V52.168H170.907V53.212C171.219 52.508 171.859 52.12 172.827 52.048L173.175 52.012L173.247 52.852L172.635 52.924C172.083 52.972 171.663 53.148 171.375 53.452C171.087 53.748 170.943 54.156 170.943 54.676V58H169.959ZM176.169 58.108C175.713 58.108 175.281 58.044 174.873 57.916C174.465 57.788 174.129 57.608 173.865 57.376L174.177 56.692C174.465 56.924 174.781 57.096 175.125 57.208C175.477 57.312 175.833 57.364 176.193 57.364C176.649 57.364 176.993 57.28 177.225 57.112C177.457 56.944 177.573 56.716 177.573 56.428C177.573 56.204 177.497 56.028 177.345 55.9C177.193 55.764 176.953 55.66 176.625 55.588L175.533 55.348C174.541 55.132 174.045 54.62 174.045 53.812C174.045 53.284 174.253 52.86 174.669 52.54C175.093 52.22 175.645 52.06 176.325 52.06C176.725 52.06 177.105 52.124 177.465 52.252C177.833 52.372 178.137 52.552 178.377 52.792L178.053 53.476C177.821 53.26 177.549 53.096 177.237 52.984C176.933 52.864 176.629 52.804 176.325 52.804C175.877 52.804 175.537 52.892 175.305 53.068C175.073 53.244 174.957 53.476 174.957 53.764C174.957 54.212 175.253 54.5 175.845 54.628L176.937 54.856C177.449 54.968 177.837 55.148 178.101 55.396C178.365 55.636 178.497 55.964 178.497 56.38C178.497 56.916 178.285 57.34 177.861 57.652C177.437 57.956 176.873 58.108 176.169 58.108ZM182.606 58.108C181.686 58.108 180.958 57.84 180.422 57.304C179.886 56.76 179.618 56.024 179.618 55.096C179.618 54.496 179.738 53.968 179.978 53.512C180.218 53.048 180.546 52.692 180.962 52.444C181.386 52.188 181.874 52.06 182.426 52.06C183.218 52.06 183.838 52.316 184.286 52.828C184.734 53.332 184.958 54.028 184.958 54.916V55.288H180.566C180.598 55.952 180.79 56.46 181.142 56.812C181.494 57.156 181.982 57.328 182.606 57.328C182.958 57.328 183.294 57.276 183.614 57.172C183.934 57.06 184.238 56.88 184.526 56.632L184.862 57.316C184.598 57.564 184.262 57.76 183.854 57.904C183.446 58.04 183.03 58.108 182.606 58.108ZM182.45 52.78C181.898 52.78 181.462 52.952 181.142 53.296C180.822 53.64 180.634 54.092 180.578 54.652H184.118C184.094 54.06 183.938 53.6 183.65 53.272C183.37 52.944 182.97 52.78 182.45 52.78ZM188.333 58.108C187.877 58.108 187.445 58.044 187.037 57.916C186.629 57.788 186.293 57.608 186.029 57.376L186.341 56.692C186.629 56.924 186.945 57.096 187.289 57.208C187.641 57.312 187.997 57.364 188.357 57.364C188.813 57.364 189.157 57.28 189.389 57.112C189.621 56.944 189.737 56.716 189.737 56.428C189.737 56.204 189.661 56.028 189.509 55.9C189.357 55.764 189.117 55.66 188.789 55.588L187.697 55.348C186.705 55.132 186.209 54.62 186.209 53.812C186.209 53.284 186.417 52.86 186.833 52.54C187.257 52.22 187.809 52.06 188.489 52.06C188.889 52.06 189.269 52.124 189.629 52.252C189.997 52.372 190.301 52.552 190.541 52.792L190.217 53.476C189.985 53.26 189.713 53.096 189.401 52.984C189.097 52.864 188.793 52.804 188.489 52.804C188.041 52.804 187.701 52.892 187.469 53.068C187.237 53.244 187.121 53.476 187.121 53.764C187.121 54.212 187.417 54.5 188.009 54.628L189.101 54.856C189.613 54.968 190.001 55.148 190.265 55.396C190.529 55.636 190.661 55.964 190.661 56.38C190.661 56.916 190.449 57.34 190.025 57.652C189.601 57.956 189.037 58.108 188.333 58.108Z" fill="#83858B"/>
<path d="M197.763 79L194.991 72.655H195.783L198.114 78.064L200.436 72.655H201.21L198.429 79H197.763ZM201.799 73.537V72.718H202.699V73.537H201.799ZM201.889 79V74.626H202.618V79H201.889ZM205.952 79.081C205.262 79.081 204.716 78.88 204.314 78.478C203.912 78.07 203.711 77.518 203.711 76.822C203.711 76.372 203.801 75.976 203.981 75.634C204.161 75.286 204.407 75.019 204.719 74.833C205.037 74.641 205.403 74.545 205.817 74.545C206.411 74.545 206.876 74.737 207.212 75.121C207.548 75.499 207.716 76.021 207.716 76.687V76.966H204.422C204.446 77.464 204.59 77.845 204.854 78.109C205.118 78.367 205.484 78.496 205.952 78.496C206.216 78.496 206.468 78.457 206.708 78.379C206.948 78.295 207.176 78.16 207.392 77.974L207.644 78.487C207.446 78.673 207.194 78.82 206.888 78.928C206.582 79.03 206.27 79.081 205.952 79.081ZM205.835 75.085C205.421 75.085 205.094 75.214 204.854 75.472C204.614 75.73 204.473 76.069 204.431 76.489H207.086C207.068 76.045 206.951 75.7 206.735 75.454C206.525 75.208 206.225 75.085 205.835 75.085ZM209.879 79L208.25 74.626H209.015L210.248 78.145L211.526 74.626H212.147L213.407 78.154L214.658 74.626H215.387L213.749 79H213.056L211.823 75.607L210.581 79H209.879Z" fill="#B33086"/>
</svg>
