<svg width="232" height="98" viewBox="0 0 232 98" fill="none" xmlns="http://www.w3.org/2000/svg">
<rect width="232" height="98" rx="6" fill="white"/>
<rect x="16" y="23" width="32" height="32" rx="16" fill="#B2EECF"/>
<path d="M35.6364 38.4545C37.1455 38.4545 38.3545 37.2364 38.3545 35.7273C38.3545 34.2182 37.1455 33 35.6364 33C34.1273 33 32.9091 34.2182 32.9091 35.7273C32.9091 37.2364 34.1273 38.4545 35.6364 38.4545ZM28.3636 38.4545C29.8727 38.4545 31.0818 37.2364 31.0818 35.7273C31.0818 34.2182 29.8727 33 28.3636 33C26.8545 33 25.6364 34.2182 25.6364 35.7273C25.6364 37.2364 26.8545 38.4545 28.3636 38.4545ZM28.3636 40.2727C26.2455 40.2727 22 41.3364 22 43.4545V45.7273H34.7273V43.4545C34.7273 41.3364 30.4818 40.2727 28.3636 40.2727ZM35.6364 40.2727C35.3727 40.2727 35.0727 40.2909 34.7545 40.3182C35.8091 41.0818 36.5455 42.1091 36.5455 43.4545V45.7273H42V43.4545C42 41.3364 37.7545 40.2727 35.6364 40.2727Z" fill="black"/>
<path d="M72.998 38.198C70.5047 38.198 68.6053 37.494 67.3 36.086C65.9947 34.678 65.342 32.7347 65.342 30.256C65.342 28.6133 65.6353 27.198 66.222 26.01C66.8087 24.822 67.652 23.9053 68.752 23.26C69.852 22.6147 71.1793 22.292 72.734 22.292C73.834 22.292 74.846 22.4607 75.77 22.798C76.694 23.1207 77.4787 23.5973 78.124 24.228L77.42 25.68C76.716 25.064 75.99 24.6167 75.242 24.338C74.494 24.0593 73.6507 23.92 72.712 23.92C70.952 23.92 69.6027 24.4773 68.664 25.592C67.7253 26.692 67.256 28.2467 67.256 30.256C67.256 32.3093 67.74 33.8787 68.708 34.964C69.676 36.0493 71.1207 36.592 73.042 36.592C74.2887 36.592 75.484 36.3793 76.628 35.954V31.356H72.69V29.926H78.19V37.098C77.7793 37.318 77.2807 37.5087 76.694 37.67C76.122 37.8313 75.5133 37.956 74.868 38.044C74.2227 38.1467 73.5993 38.198 72.998 38.198ZM85.4189 38.198C82.8522 38.198 81.5689 36.7827 81.5689 33.952V27.308H83.3509V33.93C83.3509 34.8833 83.5416 35.5873 83.9229 36.042C84.3189 36.4967 84.9349 36.724 85.7709 36.724C86.6802 36.724 87.4209 36.4233 87.9929 35.822C88.5649 35.206 88.8509 34.392 88.8509 33.38V27.308H90.6329V38H88.8949V36.196C88.5576 36.8413 88.0809 37.34 87.4649 37.692C86.8636 38.0293 86.1816 38.198 85.4189 38.198ZM93.7469 24.646V22.644H95.9469V24.646H93.7469ZM93.9669 38V27.308H95.7489V38H93.9669ZM103.37 38.198C102.109 38.198 101.163 37.868 100.532 37.208C99.9015 36.5333 99.5862 35.5653 99.5862 34.304V28.694H97.4962V27.308H99.5862V24.03H101.368V27.308H104.756V28.694H101.368V34.128C101.368 34.964 101.544 35.602 101.896 36.042C102.248 36.4673 102.82 36.68 103.612 36.68C103.847 36.68 104.082 36.6507 104.316 36.592C104.551 36.5333 104.764 36.4747 104.954 36.416L105.262 37.78C105.072 37.8827 104.793 37.978 104.426 38.066C104.06 38.154 103.708 38.198 103.37 38.198ZM110.138 38.198C109.404 38.198 108.744 38.0587 108.158 37.78C107.586 37.4867 107.131 37.0907 106.794 36.592C106.456 36.0933 106.288 35.536 106.288 34.92C106.288 34.1427 106.486 33.5267 106.882 33.072C107.292 32.6173 107.96 32.2947 108.884 32.104C109.822 31.8987 111.098 31.796 112.712 31.796H113.416V31.114C113.416 30.2047 113.225 29.552 112.844 29.156C112.477 28.7453 111.883 28.54 111.062 28.54C110.416 28.54 109.793 28.6353 109.192 28.826C108.59 29.002 107.974 29.2953 107.344 29.706L106.728 28.408C107.285 28.012 107.96 27.6967 108.752 27.462C109.558 27.2273 110.328 27.11 111.062 27.11C112.44 27.11 113.46 27.4473 114.12 28.122C114.794 28.7967 115.132 29.8453 115.132 31.268V38H113.46V36.152C113.181 36.7827 112.748 37.2813 112.162 37.648C111.59 38.0147 110.915 38.198 110.138 38.198ZM110.424 36.856C111.304 36.856 112.022 36.5553 112.58 35.954C113.137 35.338 113.416 34.5607 113.416 33.622V32.962H112.734C111.546 32.962 110.607 33.0207 109.918 33.138C109.243 33.2407 108.766 33.4313 108.488 33.71C108.224 33.974 108.092 34.3407 108.092 34.81C108.092 35.4113 108.297 35.9027 108.708 36.284C109.133 36.6653 109.705 36.856 110.424 36.856ZM118.438 38V27.308H120.176V29.222C120.748 27.9313 121.921 27.22 123.696 27.088L124.334 27.022L124.466 28.562L123.344 28.694C122.332 28.782 121.562 29.1047 121.034 29.662C120.506 30.2047 120.242 30.9527 120.242 31.906V38H118.438Z" fill="#212529"/>
<path d="M67.864 58.108C67.4 58.108 66.992 58.004 66.64 57.796C66.296 57.588 66.036 57.304 65.86 56.944V58H64.912V49.54H65.884V53.176C66.052 52.832 66.312 52.56 66.664 52.36C67.016 52.16 67.416 52.06 67.864 52.06C68.384 52.06 68.836 52.184 69.22 52.432C69.612 52.672 69.912 53.02 70.12 53.476C70.336 53.924 70.444 54.46 70.444 55.084C70.444 55.7 70.336 56.236 70.12 56.692C69.912 57.14 69.612 57.488 69.22 57.736C68.836 57.984 68.384 58.108 67.864 58.108ZM67.66 57.328C68.204 57.328 68.64 57.136 68.968 56.752C69.296 56.36 69.46 55.804 69.46 55.084C69.46 54.356 69.296 53.8 68.968 53.416C68.64 53.032 68.204 52.84 67.66 52.84C67.116 52.84 66.68 53.032 66.352 53.416C66.024 53.8 65.86 54.356 65.86 55.084C65.86 55.804 66.024 56.36 66.352 56.752C66.68 57.136 67.116 57.328 67.66 57.328ZM74.5361 58.108C73.6161 58.108 72.8881 57.84 72.3521 57.304C71.8161 56.76 71.5481 56.024 71.5481 55.096C71.5481 54.496 71.6681 53.968 71.9081 53.512C72.1481 53.048 72.4761 52.692 72.8921 52.444C73.3161 52.188 73.8041 52.06 74.3561 52.06C75.1481 52.06 75.7681 52.316 76.2161 52.828C76.6641 53.332 76.8881 54.028 76.8881 54.916V55.288H72.4961C72.5281 55.952 72.7201 56.46 73.0721 56.812C73.4241 57.156 73.9121 57.328 74.5361 57.328C74.8881 57.328 75.2241 57.276 75.5441 57.172C75.8641 57.06 76.1681 56.88 76.4561 56.632L76.7921 57.316C76.5281 57.564 76.1921 57.76 75.7841 57.904C75.3761 58.04 74.9601 58.108 74.5361 58.108ZM74.3801 52.78C73.8281 52.78 73.3921 52.952 73.0721 53.296C72.7521 53.64 72.5641 54.092 72.5081 54.652H76.0481C76.0241 54.06 75.8681 53.6 75.5801 53.272C75.3001 52.944 74.9001 52.78 74.3801 52.78ZM80.2628 58.108C79.8068 58.108 79.3748 58.044 78.9668 57.916C78.5588 57.788 78.2228 57.608 77.9588 57.376L78.2708 56.692C78.5588 56.924 78.8748 57.096 79.2188 57.208C79.5708 57.312 79.9268 57.364 80.2868 57.364C80.7428 57.364 81.0868 57.28 81.3188 57.112C81.5508 56.944 81.6668 56.716 81.6668 56.428C81.6668 56.204 81.5908 56.028 81.4388 55.9C81.2868 55.764 81.0468 55.66 80.7188 55.588L79.6268 55.348C78.6348 55.132 78.1388 54.62 78.1388 53.812C78.1388 53.284 78.3468 52.86 78.7628 52.54C79.1868 52.22 79.7388 52.06 80.4188 52.06C80.8188 52.06 81.1988 52.124 81.5588 52.252C81.9268 52.372 82.2308 52.552 82.4708 52.792L82.1468 53.476C81.9148 53.26 81.6428 53.096 81.3308 52.984C81.0268 52.864 80.7228 52.804 80.4188 52.804C79.9708 52.804 79.6308 52.892 79.3988 53.068C79.1668 53.244 79.0508 53.476 79.0508 53.764C79.0508 54.212 79.3468 54.5 79.9388 54.628L81.0308 54.856C81.5428 54.968 81.9308 55.148 82.1948 55.396C82.4588 55.636 82.5908 55.964 82.5908 56.38C82.5908 56.916 82.3788 57.34 81.9548 57.652C81.5308 57.956 80.9668 58.108 80.2628 58.108ZM86.3536 58.108C85.6656 58.108 85.1496 57.928 84.8056 57.568C84.4616 57.2 84.2896 56.672 84.2896 55.984V52.924H83.1496V52.168H84.2896V50.38H85.2616V52.168H87.1096V52.924H85.2616V55.888C85.2616 56.344 85.3576 56.692 85.5496 56.932C85.7416 57.164 86.0536 57.28 86.4856 57.28C86.6136 57.28 86.7416 57.264 86.8696 57.232C86.9976 57.2 87.1136 57.168 87.2176 57.136L87.3856 57.88C87.2816 57.936 87.1296 57.988 86.9296 58.036C86.7296 58.084 86.5376 58.108 86.3536 58.108ZM91.2909 60.16V52.168H92.2389V53.212C92.4149 52.852 92.6749 52.572 93.0189 52.372C93.3709 52.164 93.7789 52.06 94.2429 52.06C94.7629 52.06 95.2149 52.184 95.5989 52.432C95.9909 52.672 96.2909 53.02 96.4989 53.476C96.7149 53.924 96.8229 54.46 96.8229 55.084C96.8229 55.7 96.7149 56.236 96.4989 56.692C96.2909 57.14 95.9909 57.488 95.5989 57.736C95.2149 57.984 94.7629 58.108 94.2429 58.108C93.7949 58.108 93.3949 58.008 93.0429 57.808C92.6909 57.608 92.4309 57.332 92.2629 56.98V60.16H91.2909ZM94.0389 57.328C94.5829 57.328 95.0189 57.136 95.3469 56.752C95.6749 56.36 95.8389 55.804 95.8389 55.084C95.8389 54.356 95.6749 53.8 95.3469 53.416C95.0189 53.032 94.5829 52.84 94.0389 52.84C93.4949 52.84 93.0589 53.032 92.7309 53.416C92.4029 53.8 92.2389 54.356 92.2389 55.084C92.2389 55.804 92.4029 56.36 92.7309 56.752C93.0589 57.136 93.4949 57.328 94.0389 57.328ZM100.915 58.108C99.995 58.108 99.267 57.84 98.731 57.304C98.195 56.76 97.927 56.024 97.927 55.096C97.927 54.496 98.047 53.968 98.287 53.512C98.527 53.048 98.855 52.692 99.271 52.444C99.695 52.188 100.183 52.06 100.735 52.06C101.527 52.06 102.147 52.316 102.595 52.828C103.043 53.332 103.267 54.028 103.267 54.916V55.288H98.875C98.907 55.952 99.099 56.46 99.451 56.812C99.803 57.156 100.291 57.328 100.915 57.328C101.267 57.328 101.603 57.276 101.923 57.172C102.243 57.06 102.547 56.88 102.835 56.632L103.171 57.316C102.907 57.564 102.571 57.76 102.163 57.904C101.755 58.04 101.339 58.108 100.915 58.108ZM100.759 52.78C100.207 52.78 99.771 52.952 99.451 53.296C99.131 53.64 98.943 54.092 98.887 54.652H102.427C102.403 54.06 102.247 53.6 101.959 53.272C101.679 52.944 101.279 52.78 100.759 52.78ZM104.674 58V52.168H105.622V53.212C105.934 52.508 106.574 52.12 107.542 52.048L107.89 52.012L107.962 52.852L107.35 52.924C106.798 52.972 106.378 53.148 106.09 53.452C105.802 53.748 105.658 54.156 105.658 54.676V58H104.674ZM109.603 58V52.924H108.451V52.168H109.603V51.964C109.603 51.188 109.795 50.6 110.179 50.2C110.571 49.8 111.171 49.576 111.979 49.528L112.447 49.504L112.531 50.248L111.979 50.284C111.483 50.324 111.123 50.472 110.899 50.728C110.683 50.984 110.575 51.356 110.575 51.844V52.168H112.255V52.924H110.575V58H109.603ZM115.547 58.108C114.979 58.108 114.487 57.984 114.071 57.736C113.655 57.488 113.331 57.14 113.099 56.692C112.875 56.236 112.763 55.7 112.763 55.084C112.763 54.468 112.875 53.936 113.099 53.488C113.331 53.032 113.655 52.68 114.071 52.432C114.487 52.184 114.979 52.06 115.547 52.06C116.107 52.06 116.595 52.184 117.011 52.432C117.435 52.68 117.759 53.032 117.983 53.488C118.215 53.936 118.331 54.468 118.331 55.084C118.331 55.7 118.215 56.236 117.983 56.692C117.759 57.14 117.435 57.488 117.011 57.736C116.595 57.984 116.107 58.108 115.547 58.108ZM115.547 57.328C116.091 57.328 116.527 57.136 116.855 56.752C117.183 56.36 117.347 55.804 117.347 55.084C117.347 54.356 117.183 53.8 116.855 53.416C116.527 53.032 116.091 52.84 115.547 52.84C114.995 52.84 114.555 53.032 114.227 53.416C113.907 53.8 113.747 54.356 113.747 55.084C113.747 55.804 113.907 56.36 114.227 56.752C114.555 57.136 114.995 57.328 115.547 57.328ZM119.791 58V52.168H120.739V53.212C121.051 52.508 121.691 52.12 122.659 52.048L123.007 52.012L123.079 52.852L122.467 52.924C121.915 52.972 121.495 53.148 121.207 53.452C120.919 53.748 120.775 54.156 120.775 54.676V58H119.791ZM124.116 58V52.168H125.064V53.152C125.24 52.8 125.484 52.532 125.796 52.348C126.108 52.156 126.472 52.06 126.888 52.06C127.8 52.06 128.384 52.456 128.64 53.248C128.816 52.88 129.076 52.592 129.42 52.384C129.764 52.168 130.16 52.06 130.608 52.06C131.904 52.06 132.552 52.828 132.552 54.364V58H131.58V54.412C131.58 53.876 131.484 53.484 131.292 53.236C131.108 52.98 130.8 52.852 130.368 52.852C129.896 52.852 129.52 53.02 129.24 53.356C128.96 53.692 128.82 54.14 128.82 54.7V58H127.848V54.412C127.848 53.876 127.752 53.484 127.56 53.236C127.376 52.98 127.068 52.852 126.636 52.852C126.156 52.852 125.776 53.02 125.496 53.356C125.224 53.692 125.088 54.14 125.088 54.7V58H124.116ZM134.249 50.716V49.624H135.449V50.716H134.249ZM134.369 58V52.168H135.341V58H134.369ZM137.158 58V52.168H138.106V53.164C138.298 52.796 138.57 52.52 138.922 52.336C139.274 52.152 139.67 52.06 140.11 52.06C141.494 52.06 142.186 52.828 142.186 54.364V58H141.214V54.424C141.214 53.88 141.106 53.484 140.89 53.236C140.682 52.98 140.346 52.852 139.882 52.852C139.346 52.852 138.918 53.02 138.598 53.356C138.286 53.684 138.13 54.124 138.13 54.676V58H137.158ZM146.558 60.268C146.054 60.268 145.578 60.2 145.13 60.064C144.69 59.936 144.298 59.74 143.954 59.476L144.278 58.768C144.638 59.024 144.994 59.208 145.346 59.32C145.706 59.432 146.094 59.488 146.51 59.488C147.662 59.488 148.238 58.896 148.238 57.712V56.68C148.07 57.048 147.806 57.34 147.446 57.556C147.094 57.764 146.69 57.868 146.234 57.868C145.698 57.868 145.234 57.744 144.842 57.496C144.45 57.248 144.146 56.908 143.93 56.476C143.722 56.036 143.618 55.528 143.618 54.952C143.618 54.376 143.722 53.872 143.93 53.44C144.146 53 144.45 52.66 144.842 52.42C145.234 52.18 145.698 52.06 146.234 52.06C146.69 52.06 147.094 52.164 147.446 52.372C147.806 52.58 148.07 52.864 148.238 53.224V52.168H149.186V57.58C149.186 58.476 148.962 59.148 148.514 59.596C148.074 60.044 147.422 60.268 146.558 60.268ZM146.414 57.076C146.974 57.076 147.418 56.884 147.746 56.5C148.074 56.116 148.238 55.6 148.238 54.952C148.238 54.304 148.074 53.792 147.746 53.416C147.418 53.032 146.974 52.84 146.414 52.84C145.862 52.84 145.422 53.032 145.094 53.416C144.766 53.792 144.602 54.304 144.602 54.952C144.602 55.6 144.766 56.116 145.094 56.5C145.422 56.884 145.862 57.076 146.414 57.076ZM156.564 58.108C155.98 58.108 155.476 57.984 155.052 57.736C154.628 57.48 154.3 57.124 154.068 56.668C153.844 56.204 153.732 55.664 153.732 55.048C153.732 54.12 153.984 53.392 154.488 52.864C154.992 52.328 155.684 52.06 156.564 52.06C156.924 52.06 157.28 52.124 157.632 52.252C157.984 52.38 158.276 52.56 158.508 52.792L158.172 53.5C157.94 53.276 157.684 53.112 157.404 53.008C157.132 52.904 156.872 52.852 156.624 52.852C156.016 52.852 155.548 53.044 155.22 53.428C154.892 53.804 154.728 54.348 154.728 55.06C154.728 55.756 154.892 56.308 155.22 56.716C155.548 57.116 156.016 57.316 156.624 57.316C156.872 57.316 157.132 57.264 157.404 57.16C157.684 57.056 157.94 56.888 158.172 56.656L158.508 57.364C158.276 57.596 157.98 57.78 157.62 57.916C157.268 58.044 156.916 58.108 156.564 58.108ZM161.953 58.108C161.385 58.108 160.893 57.984 160.477 57.736C160.061 57.488 159.737 57.14 159.505 56.692C159.281 56.236 159.169 55.7 159.169 55.084C159.169 54.468 159.281 53.936 159.505 53.488C159.737 53.032 160.061 52.68 160.477 52.432C160.893 52.184 161.385 52.06 161.953 52.06C162.513 52.06 163.001 52.184 163.417 52.432C163.841 52.68 164.165 53.032 164.389 53.488C164.621 53.936 164.737 54.468 164.737 55.084C164.737 55.7 164.621 56.236 164.389 56.692C164.165 57.14 163.841 57.488 163.417 57.736C163.001 57.984 162.513 58.108 161.953 58.108ZM161.953 57.328C162.497 57.328 162.933 57.136 163.261 56.752C163.589 56.36 163.753 55.804 163.753 55.084C163.753 54.356 163.589 53.8 163.261 53.416C162.933 53.032 162.497 52.84 161.953 52.84C161.401 52.84 160.961 53.032 160.633 53.416C160.313 53.8 160.153 54.356 160.153 55.084C160.153 55.804 160.313 56.36 160.633 56.752C160.961 57.136 161.401 57.328 161.953 57.328ZM168.261 58.108C166.861 58.108 166.161 57.336 166.161 55.792V52.168H167.133V55.78C167.133 56.3 167.237 56.684 167.445 56.932C167.661 57.18 167.997 57.304 168.453 57.304C168.949 57.304 169.353 57.14 169.665 56.812C169.977 56.476 170.133 56.032 170.133 55.48V52.168H171.105V58H170.157V57.016C169.973 57.368 169.713 57.64 169.377 57.832C169.049 58.016 168.677 58.108 168.261 58.108ZM172.924 58V52.168H173.872V53.212C174.184 52.508 174.824 52.12 175.792 52.048L176.14 52.012L176.212 52.852L175.6 52.924C175.048 52.972 174.628 53.148 174.34 53.452C174.052 53.748 173.908 54.156 173.908 54.676V58H172.924ZM179.134 58.108C178.678 58.108 178.246 58.044 177.838 57.916C177.43 57.788 177.094 57.608 176.83 57.376L177.142 56.692C177.43 56.924 177.746 57.096 178.09 57.208C178.442 57.312 178.798 57.364 179.158 57.364C179.614 57.364 179.958 57.28 180.19 57.112C180.422 56.944 180.538 56.716 180.538 56.428C180.538 56.204 180.462 56.028 180.31 55.9C180.158 55.764 179.918 55.66 179.59 55.588L178.498 55.348C177.506 55.132 177.01 54.62 177.01 53.812C177.01 53.284 177.218 52.86 177.634 52.54C178.058 52.22 178.61 52.06 179.29 52.06C179.69 52.06 180.07 52.124 180.43 52.252C180.798 52.372 181.102 52.552 181.342 52.792L181.018 53.476C180.786 53.26 180.514 53.096 180.202 52.984C179.898 52.864 179.594 52.804 179.29 52.804C178.842 52.804 178.502 52.892 178.27 53.068C178.038 53.244 177.922 53.476 177.922 53.764C177.922 54.212 178.218 54.5 178.81 54.628L179.902 54.856C180.414 54.968 180.802 55.148 181.066 55.396C181.33 55.636 181.462 55.964 181.462 56.38C181.462 56.916 181.25 57.34 180.826 57.652C180.402 57.956 179.838 58.108 179.134 58.108ZM185.571 58.108C184.651 58.108 183.923 57.84 183.387 57.304C182.851 56.76 182.583 56.024 182.583 55.096C182.583 54.496 182.703 53.968 182.943 53.512C183.183 53.048 183.511 52.692 183.927 52.444C184.351 52.188 184.839 52.06 185.391 52.06C186.183 52.06 186.803 52.316 187.251 52.828C187.699 53.332 187.923 54.028 187.923 54.916V55.288H183.531C183.563 55.952 183.755 56.46 184.107 56.812C184.459 57.156 184.947 57.328 185.571 57.328C185.923 57.328 186.259 57.276 186.579 57.172C186.899 57.06 187.203 56.88 187.491 56.632L187.827 57.316C187.563 57.564 187.227 57.76 186.819 57.904C186.411 58.04 185.995 58.108 185.571 58.108ZM185.415 52.78C184.863 52.78 184.427 52.952 184.107 53.296C183.787 53.64 183.599 54.092 183.543 54.652H187.083C187.059 54.06 186.903 53.6 186.615 53.272C186.335 52.944 185.935 52.78 185.415 52.78Z" fill="#83858B"/>
<path d="M197.763 79L194.991 72.655H195.783L198.114 78.064L200.436 72.655H201.21L198.429 79H197.763ZM201.799 73.537V72.718H202.699V73.537H201.799ZM201.889 79V74.626H202.618V79H201.889ZM205.952 79.081C205.262 79.081 204.716 78.88 204.314 78.478C203.912 78.07 203.711 77.518 203.711 76.822C203.711 76.372 203.801 75.976 203.981 75.634C204.161 75.286 204.407 75.019 204.719 74.833C205.037 74.641 205.403 74.545 205.817 74.545C206.411 74.545 206.876 74.737 207.212 75.121C207.548 75.499 207.716 76.021 207.716 76.687V76.966H204.422C204.446 77.464 204.59 77.845 204.854 78.109C205.118 78.367 205.484 78.496 205.952 78.496C206.216 78.496 206.468 78.457 206.708 78.379C206.948 78.295 207.176 78.16 207.392 77.974L207.644 78.487C207.446 78.673 207.194 78.82 206.888 78.928C206.582 79.03 206.27 79.081 205.952 79.081ZM205.835 75.085C205.421 75.085 205.094 75.214 204.854 75.472C204.614 75.73 204.473 76.069 204.431 76.489H207.086C207.068 76.045 206.951 75.7 206.735 75.454C206.525 75.208 206.225 75.085 205.835 75.085ZM209.879 79L208.25 74.626H209.015L210.248 78.145L211.526 74.626H212.147L213.407 78.154L214.658 74.626H215.387L213.749 79H213.056L211.823 75.607L210.581 79H209.879Z" fill="#B33086"/>
</svg>
