<svg width="232" height="98" viewBox="0 0 232 98" fill="none" xmlns="http://www.w3.org/2000/svg">
<rect width="232" height="98" rx="6" fill="white"/>
<rect x="16" y="23" width="32" height="32" rx="16" fill="#B2EECF"/>
<path d="M35.6364 38.4545C37.1455 38.4545 38.3546 37.2364 38.3546 35.7273C38.3546 34.2182 37.1455 33 35.6364 33C34.1273 33 32.9091 34.2182 32.9091 35.7273C32.9091 37.2364 34.1273 38.4545 35.6364 38.4545ZM28.3637 38.4545C29.8728 38.4545 31.0818 37.2364 31.0818 35.7273C31.0818 34.2182 29.8728 33 28.3637 33C26.8546 33 25.6364 34.2182 25.6364 35.7273C25.6364 37.2364 26.8546 38.4545 28.3637 38.4545ZM28.3637 40.2727C26.2455 40.2727 22 41.3364 22 43.4545V45.7273H34.7273V43.4545C34.7273 41.3364 30.4818 40.2727 28.3637 40.2727ZM35.6364 40.2727C35.3728 40.2727 35.0728 40.2909 34.7546 40.3182C35.8091 41.0818 36.5455 42.1091 36.5455 43.4545V45.7273H42V43.4545C42 41.3364 37.7546 40.2727 35.6364 40.2727Z" fill="black"/>
<path d="M70.072 40.53V38.088C69.0893 38.044 68.158 37.8753 67.278 37.582C66.4127 37.2887 65.6573 36.8487 65.012 36.262L65.672 34.81C66.3613 35.382 67.0947 35.8073 67.872 36.086C68.664 36.3647 69.5807 36.504 70.622 36.504C71.8687 36.504 72.7927 36.262 73.394 35.778C74.01 35.294 74.318 34.6633 74.318 33.886C74.318 33.2407 74.098 32.7273 73.658 32.346C73.2327 31.9647 72.5067 31.664 71.48 31.444L69.28 30.982C67.96 30.7033 66.97 30.234 66.31 29.574C65.6647 28.8993 65.342 28.012 65.342 26.912C65.342 26.0907 65.5327 25.3573 65.914 24.712C66.31 24.052 66.86 23.524 67.564 23.128C68.2827 22.732 69.1187 22.4973 70.072 22.424V19.96H71.568V22.424C72.316 22.4827 73.0567 22.666 73.79 22.974C74.538 23.282 75.176 23.722 75.704 24.294L75.088 25.702C74.5013 25.1007 73.8487 24.668 73.13 24.404C72.4113 24.1253 71.612 23.986 70.732 23.986C69.6467 23.986 68.774 24.25 68.114 24.778C67.454 25.306 67.124 26.0027 67.124 26.868C67.124 27.5573 67.3293 28.1 67.74 28.496C68.1653 28.892 68.8327 29.1853 69.742 29.376L71.942 29.86C73.3647 30.1533 74.4207 30.6153 75.11 31.246C75.7993 31.8767 76.144 32.72 76.144 33.776C76.144 34.9787 75.7187 35.9613 74.868 36.724C74.0173 37.472 72.9173 37.9193 71.568 38.066V40.53H70.072ZM79.1714 38V36.636L84.4734 30.916C85.2214 30.0947 85.7567 29.3467 86.0794 28.672C86.4167 27.9973 86.5854 27.308 86.5854 26.604C86.5854 24.8 85.5367 23.898 83.4394 23.898C81.8701 23.898 80.4841 24.4847 79.2814 25.658L78.5994 24.25C79.1714 23.6633 79.8974 23.194 80.7774 22.842C81.6721 22.4753 82.6107 22.292 83.5934 22.292C85.1481 22.292 86.3361 22.6587 87.1574 23.392C87.9934 24.1107 88.4114 25.1373 88.4114 26.472C88.4114 27.396 88.1841 28.3053 87.7294 29.2C87.2747 30.08 86.5781 31.0187 85.6394 32.016L81.4814 36.46H89.0494V38H79.1714ZM96.9828 38.198C95.2081 38.198 93.8588 37.516 92.9348 36.152C92.0108 34.788 91.5488 32.8153 91.5488 30.234C91.5488 27.638 92.0108 25.6653 92.9348 24.316C93.8588 22.9667 95.2081 22.292 96.9828 22.292C98.7721 22.292 100.121 22.9667 101.031 24.316C101.955 25.6507 102.417 27.616 102.417 30.212C102.417 32.808 101.947 34.788 101.009 36.152C100.085 37.516 98.7428 38.198 96.9828 38.198ZM96.9828 36.636C98.2148 36.636 99.1241 36.1153 99.7108 35.074C100.312 34.0327 100.613 32.412 100.613 30.212C100.613 28.012 100.319 26.406 99.7328 25.394C99.1461 24.3673 98.2295 23.854 96.9828 23.854C95.7508 23.854 94.8341 24.3673 94.2328 25.394C93.6461 26.4207 93.3528 28.0267 93.3528 30.212C93.3528 32.412 93.6461 34.0327 94.2328 35.074C94.8341 36.1153 95.7508 36.636 96.9828 36.636ZM110.174 38.198C108.4 38.198 107.05 37.516 106.126 36.152C105.202 34.788 104.74 32.8153 104.74 30.234C104.74 27.638 105.202 25.6653 106.126 24.316C107.05 22.9667 108.4 22.292 110.174 22.292C111.964 22.292 113.313 22.9667 114.222 24.316C115.146 25.6507 115.608 27.616 115.608 30.212C115.608 32.808 115.139 34.788 114.2 36.152C113.276 37.516 111.934 38.198 110.174 38.198ZM110.174 36.636C111.406 36.636 112.316 36.1153 112.902 35.074C113.504 34.0327 113.804 32.412 113.804 30.212C113.804 28.012 113.511 26.406 112.924 25.394C112.338 24.3673 111.421 23.854 110.174 23.854C108.942 23.854 108.026 24.3673 107.424 25.394C106.838 26.4207 106.544 28.0267 106.544 30.212C106.544 32.412 106.838 34.0327 107.424 35.074C108.026 36.1153 108.942 36.636 110.174 36.636ZM123.366 38.198C121.591 38.198 120.242 37.516 119.318 36.152C118.394 34.788 117.932 32.8153 117.932 30.234C117.932 27.638 118.394 25.6653 119.318 24.316C120.242 22.9667 121.591 22.292 123.366 22.292C125.155 22.292 126.504 22.9667 127.414 24.316C128.338 25.6507 128.8 27.616 128.8 30.212C128.8 32.808 128.33 34.788 127.392 36.152C126.468 37.516 125.126 38.198 123.366 38.198ZM123.366 36.636C124.598 36.636 125.507 36.1153 126.094 35.074C126.695 34.0327 126.996 32.412 126.996 30.212C126.996 28.012 126.702 26.406 126.116 25.394C125.529 24.3673 124.612 23.854 123.366 23.854C122.134 23.854 121.217 24.3673 120.616 25.394C120.029 26.4207 119.736 28.0267 119.736 30.212C119.736 32.412 120.029 34.0327 120.616 35.074C121.217 36.1153 122.134 36.636 123.366 36.636Z" fill="#212529"/>
<path d="M67.252 58.108C66.564 58.108 66.048 57.928 65.704 57.568C65.36 57.2 65.188 56.672 65.188 55.984V52.924H64.048V52.168H65.188V50.38H66.16V52.168H68.008V52.924H66.16V55.888C66.16 56.344 66.256 56.692 66.448 56.932C66.64 57.164 66.952 57.28 67.384 57.28C67.512 57.28 67.64 57.264 67.768 57.232C67.896 57.2 68.012 57.168 68.116 57.136L68.284 57.88C68.18 57.936 68.028 57.988 67.828 58.036C67.628 58.084 67.436 58.108 67.252 58.108ZM71.4727 58.108C70.9047 58.108 70.4127 57.984 69.9967 57.736C69.5807 57.488 69.2567 57.14 69.0247 56.692C68.8007 56.236 68.6887 55.7 68.6887 55.084C68.6887 54.468 68.8007 53.936 69.0247 53.488C69.2567 53.032 69.5807 52.68 69.9967 52.432C70.4127 52.184 70.9047 52.06 71.4727 52.06C72.0327 52.06 72.5207 52.184 72.9367 52.432C73.3607 52.68 73.6847 53.032 73.9087 53.488C74.1407 53.936 74.2567 54.468 74.2567 55.084C74.2567 55.7 74.1407 56.236 73.9087 56.692C73.6847 57.14 73.3607 57.488 72.9367 57.736C72.5207 57.984 72.0327 58.108 71.4727 58.108ZM71.4727 57.328C72.0167 57.328 72.4527 57.136 72.7807 56.752C73.1087 56.36 73.2727 55.804 73.2727 55.084C73.2727 54.356 73.1087 53.8 72.7807 53.416C72.4527 53.032 72.0167 52.84 71.4727 52.84C70.9207 52.84 70.4807 53.032 70.1527 53.416C69.8327 53.8 69.6727 54.356 69.6727 55.084C69.6727 55.804 69.8327 56.36 70.1527 56.752C70.4807 57.136 70.9207 57.328 71.4727 57.328ZM77.9981 58.108C77.3101 58.108 76.7941 57.928 76.4501 57.568C76.1061 57.2 75.9341 56.672 75.9341 55.984V52.924H74.7941V52.168H75.9341V50.38H76.9061V52.168H78.7541V52.924H76.9061V55.888C76.9061 56.344 77.0021 56.692 77.1941 56.932C77.3861 57.164 77.6981 57.28 78.1301 57.28C78.2581 57.28 78.3861 57.264 78.5141 57.232C78.6421 57.2 78.7581 57.168 78.8621 57.136L79.0301 57.88C78.9261 57.936 78.7741 57.988 78.5741 58.036C78.3741 58.084 78.1821 58.108 77.9981 58.108ZM81.6894 58.108C81.2894 58.108 80.9294 58.032 80.6094 57.88C80.2974 57.72 80.0494 57.504 79.8654 57.232C79.6814 56.96 79.5894 56.656 79.5894 56.32C79.5894 55.896 79.6974 55.56 79.9134 55.312C80.1374 55.064 80.5014 54.888 81.0054 54.784C81.5174 54.672 82.2134 54.616 83.0934 54.616H83.4774V54.244C83.4774 53.748 83.3734 53.392 83.1654 53.176C82.9654 52.952 82.6414 52.84 82.1934 52.84C81.8414 52.84 81.5014 52.892 81.1734 52.996C80.8454 53.092 80.5094 53.252 80.1654 53.476L79.8294 52.768C80.1334 52.552 80.5014 52.38 80.9334 52.252C81.3734 52.124 81.7934 52.06 82.1934 52.06C82.9454 52.06 83.5014 52.244 83.8614 52.612C84.2294 52.98 84.4134 53.552 84.4134 54.328V58H83.5014V56.992C83.3494 57.336 83.1134 57.608 82.7934 57.808C82.4814 58.008 82.1134 58.108 81.6894 58.108ZM81.8454 57.376C82.3254 57.376 82.7174 57.212 83.0214 56.884C83.3254 56.548 83.4774 56.124 83.4774 55.612V55.252H83.1054C82.4574 55.252 81.9454 55.284 81.5694 55.348C81.2014 55.404 80.9414 55.508 80.7894 55.66C80.6454 55.804 80.5734 56.004 80.5734 56.26C80.5734 56.588 80.6854 56.856 80.9094 57.064C81.1414 57.272 81.4534 57.376 81.8454 57.376ZM88.0047 58.108C87.4127 58.108 86.9647 57.936 86.6607 57.592C86.3647 57.24 86.2167 56.732 86.2167 56.068V49.54H87.1887V55.996C87.1887 56.852 87.5287 57.28 88.2087 57.28C88.4087 57.28 88.5887 57.256 88.7487 57.208L88.7247 58.024C88.4767 58.08 88.2367 58.108 88.0047 58.108ZM94.6855 58.108C94.2855 58.108 93.9255 58.032 93.6055 57.88C93.2935 57.72 93.0455 57.504 92.8615 57.232C92.6775 56.96 92.5855 56.656 92.5855 56.32C92.5855 55.896 92.6935 55.56 92.9095 55.312C93.1335 55.064 93.4975 54.888 94.0015 54.784C94.5135 54.672 95.2095 54.616 96.0895 54.616H96.4735V54.244C96.4735 53.748 96.3695 53.392 96.1615 53.176C95.9615 52.952 95.6375 52.84 95.1895 52.84C94.8375 52.84 94.4975 52.892 94.1695 52.996C93.8415 53.092 93.5055 53.252 93.1615 53.476L92.8255 52.768C93.1295 52.552 93.4975 52.38 93.9295 52.252C94.3695 52.124 94.7895 52.06 95.1895 52.06C95.9415 52.06 96.4975 52.244 96.8575 52.612C97.2255 52.98 97.4095 53.552 97.4095 54.328V58H96.4975V56.992C96.3455 57.336 96.1095 57.608 95.7895 57.808C95.4775 58.008 95.1095 58.108 94.6855 58.108ZM94.8415 57.376C95.3215 57.376 95.7135 57.212 96.0175 56.884C96.3215 56.548 96.4735 56.124 96.4735 55.612V55.252H96.1015C95.4535 55.252 94.9415 55.284 94.5655 55.348C94.1975 55.404 93.9375 55.508 93.7855 55.66C93.6415 55.804 93.5695 56.004 93.5695 56.26C93.5695 56.588 93.6815 56.856 93.9055 57.064C94.1375 57.272 94.4495 57.376 94.8415 57.376ZM99.2368 58V52.168H100.185V53.152C100.361 52.8 100.605 52.532 100.917 52.348C101.229 52.156 101.593 52.06 102.009 52.06C102.921 52.06 103.505 52.456 103.761 53.248C103.937 52.88 104.197 52.592 104.541 52.384C104.885 52.168 105.281 52.06 105.729 52.06C107.025 52.06 107.673 52.828 107.673 54.364V58H106.701V54.412C106.701 53.876 106.605 53.484 106.413 53.236C106.229 52.98 105.921 52.852 105.489 52.852C105.017 52.852 104.641 53.02 104.361 53.356C104.081 53.692 103.941 54.14 103.941 54.7V58H102.969V54.412C102.969 53.876 102.873 53.484 102.681 53.236C102.497 52.98 102.189 52.852 101.757 52.852C101.277 52.852 100.897 53.02 100.617 53.356C100.345 53.692 100.209 54.14 100.209 54.7V58H99.2368ZM111.914 58.108C111.346 58.108 110.854 57.984 110.438 57.736C110.022 57.488 109.698 57.14 109.466 56.692C109.242 56.236 109.13 55.7 109.13 55.084C109.13 54.468 109.242 53.936 109.466 53.488C109.698 53.032 110.022 52.68 110.438 52.432C110.854 52.184 111.346 52.06 111.914 52.06C112.474 52.06 112.962 52.184 113.378 52.432C113.802 52.68 114.126 53.032 114.35 53.488C114.582 53.936 114.698 54.468 114.698 55.084C114.698 55.7 114.582 56.236 114.35 56.692C114.126 57.14 113.802 57.488 113.378 57.736C112.962 57.984 112.474 58.108 111.914 58.108ZM111.914 57.328C112.458 57.328 112.894 57.136 113.222 56.752C113.55 56.36 113.714 55.804 113.714 55.084C113.714 54.356 113.55 53.8 113.222 53.416C112.894 53.032 112.458 52.84 111.914 52.84C111.362 52.84 110.922 53.032 110.594 53.416C110.274 53.8 110.114 54.356 110.114 55.084C110.114 55.804 110.274 56.36 110.594 56.752C110.922 57.136 111.362 57.328 111.914 57.328ZM118.222 58.108C116.822 58.108 116.122 57.336 116.122 55.792V52.168H117.094V55.78C117.094 56.3 117.198 56.684 117.406 56.932C117.622 57.18 117.958 57.304 118.414 57.304C118.91 57.304 119.314 57.14 119.626 56.812C119.938 56.476 120.094 56.032 120.094 55.48V52.168H121.066V58H120.118V57.016C119.934 57.368 119.674 57.64 119.338 57.832C119.01 58.016 118.638 58.108 118.222 58.108ZM122.885 58V52.168H123.833V53.164C124.025 52.796 124.297 52.52 124.649 52.336C125.001 52.152 125.397 52.06 125.837 52.06C127.221 52.06 127.913 52.828 127.913 54.364V58H126.941V54.424C126.941 53.88 126.833 53.484 126.617 53.236C126.409 52.98 126.073 52.852 125.609 52.852C125.073 52.852 124.645 53.02 124.325 53.356C124.013 53.684 123.857 54.124 123.857 54.676V58H122.885ZM132.045 58.108C131.357 58.108 130.841 57.928 130.497 57.568C130.153 57.2 129.981 56.672 129.981 55.984V52.924H128.841V52.168H129.981V50.38H130.953V52.168H132.801V52.924H130.953V55.888C130.953 56.344 131.049 56.692 131.241 56.932C131.433 57.164 131.745 57.28 132.177 57.28C132.305 57.28 132.433 57.264 132.561 57.232C132.689 57.2 132.805 57.168 132.909 57.136L133.077 57.88C132.973 57.936 132.821 57.988 132.621 58.036C132.421 58.084 132.229 58.108 132.045 58.108ZM139.61 58.108C138.69 58.108 137.962 57.84 137.426 57.304C136.89 56.76 136.622 56.024 136.622 55.096C136.622 54.496 136.742 53.968 136.982 53.512C137.222 53.048 137.55 52.692 137.966 52.444C138.39 52.188 138.878 52.06 139.43 52.06C140.222 52.06 140.842 52.316 141.29 52.828C141.738 53.332 141.962 54.028 141.962 54.916V55.288H137.57C137.602 55.952 137.794 56.46 138.146 56.812C138.498 57.156 138.986 57.328 139.61 57.328C139.962 57.328 140.298 57.276 140.618 57.172C140.938 57.06 141.242 56.88 141.53 56.632L141.866 57.316C141.602 57.564 141.266 57.76 140.858 57.904C140.45 58.04 140.034 58.108 139.61 58.108ZM139.454 52.78C138.902 52.78 138.466 52.952 138.146 53.296C137.826 53.64 137.638 54.092 137.582 54.652H141.122C141.098 54.06 140.942 53.6 140.654 53.272C140.374 52.944 139.974 52.78 139.454 52.78ZM145.205 58.108C144.805 58.108 144.445 58.032 144.125 57.88C143.813 57.72 143.565 57.504 143.381 57.232C143.197 56.96 143.105 56.656 143.105 56.32C143.105 55.896 143.213 55.56 143.429 55.312C143.653 55.064 144.017 54.888 144.521 54.784C145.033 54.672 145.729 54.616 146.609 54.616H146.993V54.244C146.993 53.748 146.889 53.392 146.681 53.176C146.481 52.952 146.157 52.84 145.709 52.84C145.357 52.84 145.017 52.892 144.689 52.996C144.361 53.092 144.025 53.252 143.681 53.476L143.345 52.768C143.649 52.552 144.017 52.38 144.449 52.252C144.889 52.124 145.309 52.06 145.709 52.06C146.461 52.06 147.017 52.244 147.377 52.612C147.745 52.98 147.929 53.552 147.929 54.328V58H147.017V56.992C146.865 57.336 146.629 57.608 146.309 57.808C145.997 58.008 145.629 58.108 145.205 58.108ZM145.361 57.376C145.841 57.376 146.233 57.212 146.537 56.884C146.841 56.548 146.993 56.124 146.993 55.612V55.252H146.621C145.973 55.252 145.461 55.284 145.085 55.348C144.717 55.404 144.457 55.508 144.305 55.66C144.161 55.804 144.089 56.004 144.089 56.26C144.089 56.588 144.201 56.856 144.425 57.064C144.657 57.272 144.969 57.376 145.361 57.376ZM149.732 58V52.168H150.68V53.212C150.992 52.508 151.632 52.12 152.6 52.048L152.948 52.012L153.02 52.852L152.408 52.924C151.856 52.972 151.436 53.148 151.148 53.452C150.86 53.748 150.716 54.156 150.716 54.676V58H149.732ZM154.033 58V52.168H154.981V53.164C155.173 52.796 155.445 52.52 155.797 52.336C156.149 52.152 156.545 52.06 156.985 52.06C158.369 52.06 159.061 52.828 159.061 54.364V58H158.089V54.424C158.089 53.88 157.981 53.484 157.765 53.236C157.557 52.98 157.221 52.852 156.757 52.852C156.221 52.852 155.793 53.02 155.473 53.356C155.161 53.684 155.005 54.124 155.005 54.676V58H154.033ZM163.481 58.108C162.561 58.108 161.833 57.84 161.297 57.304C160.761 56.76 160.493 56.024 160.493 55.096C160.493 54.496 160.613 53.968 160.853 53.512C161.093 53.048 161.421 52.692 161.837 52.444C162.261 52.188 162.749 52.06 163.301 52.06C164.093 52.06 164.713 52.316 165.161 52.828C165.609 53.332 165.833 54.028 165.833 54.916V55.288H161.441C161.473 55.952 161.665 56.46 162.017 56.812C162.369 57.156 162.857 57.328 163.481 57.328C163.833 57.328 164.169 57.276 164.489 57.172C164.809 57.06 165.113 56.88 165.401 56.632L165.737 57.316C165.473 57.564 165.137 57.76 164.729 57.904C164.321 58.04 163.905 58.108 163.481 58.108ZM163.325 52.78C162.773 52.78 162.337 52.952 162.017 53.296C161.697 53.64 161.509 54.092 161.453 54.652H164.993C164.969 54.06 164.813 53.6 164.525 53.272C164.245 52.944 163.845 52.78 163.325 52.78ZM169.46 58.108C168.94 58.108 168.484 57.984 168.092 57.736C167.708 57.488 167.408 57.14 167.192 56.692C166.984 56.236 166.88 55.7 166.88 55.084C166.88 54.46 166.984 53.924 167.192 53.476C167.408 53.02 167.708 52.672 168.092 52.432C168.484 52.184 168.94 52.06 169.46 52.06C169.916 52.06 170.316 52.16 170.66 52.36C171.012 52.56 171.272 52.836 171.44 53.188V49.54H172.412V58H171.464V56.932C171.296 57.3 171.036 57.588 170.684 57.796C170.332 58.004 169.924 58.108 169.46 58.108ZM169.664 57.328C170.208 57.328 170.644 57.136 170.972 56.752C171.3 56.36 171.464 55.804 171.464 55.084C171.464 54.356 171.3 53.8 170.972 53.416C170.644 53.032 170.208 52.84 169.664 52.84C169.112 52.84 168.672 53.032 168.344 53.416C168.024 53.8 167.864 54.356 167.864 55.084C167.864 55.804 168.024 56.36 168.344 56.752C168.672 57.136 169.112 57.328 169.664 57.328Z" fill="#83858B"/>
<path d="M197.763 79L194.991 72.655H195.783L198.114 78.064L200.436 72.655H201.21L198.429 79H197.763ZM201.799 73.537V72.718H202.699V73.537H201.799ZM201.889 79V74.626H202.618V79H201.889ZM205.952 79.081C205.262 79.081 204.716 78.88 204.314 78.478C203.912 78.07 203.711 77.518 203.711 76.822C203.711 76.372 203.801 75.976 203.981 75.634C204.161 75.286 204.407 75.019 204.719 74.833C205.037 74.641 205.403 74.545 205.817 74.545C206.411 74.545 206.876 74.737 207.212 75.121C207.548 75.499 207.716 76.021 207.716 76.687V76.966H204.422C204.446 77.464 204.59 77.845 204.854 78.109C205.118 78.367 205.484 78.496 205.952 78.496C206.216 78.496 206.468 78.457 206.708 78.379C206.948 78.295 207.176 78.16 207.392 77.974L207.644 78.487C207.446 78.673 207.194 78.82 206.888 78.928C206.582 79.03 206.27 79.081 205.952 79.081ZM205.835 75.085C205.421 75.085 205.094 75.214 204.854 75.472C204.614 75.73 204.473 76.069 204.431 76.489H207.086C207.068 76.045 206.951 75.7 206.735 75.454C206.525 75.208 206.225 75.085 205.835 75.085ZM209.879 79L208.25 74.626H209.015L210.248 78.145L211.526 74.626H212.147L213.407 78.154L214.658 74.626H215.387L213.749 79H213.056L211.823 75.607L210.581 79H209.879Z" fill="#B33086"/>
</svg>
