<svg width="232" height="98" viewBox="0 0 232 98" fill="none" xmlns="http://www.w3.org/2000/svg">
<rect width="232" height="98" rx="6" fill="white"/>
<rect x="16" y="23" width="32" height="32" rx="16" fill="#B2EECF"/>
<path d="M35.6364 38.4545C37.1455 38.4545 38.3545 37.2364 38.3545 35.7273C38.3545 34.2182 37.1455 33 35.6364 33C34.1273 33 32.9091 34.2182 32.9091 35.7273C32.9091 37.2364 34.1273 38.4545 35.6364 38.4545ZM28.3636 38.4545C29.8727 38.4545 31.0818 37.2364 31.0818 35.7273C31.0818 34.2182 29.8727 33 28.3636 33C26.8545 33 25.6364 34.2182 25.6364 35.7273C25.6364 37.2364 26.8545 38.4545 28.3636 38.4545ZM28.3636 40.2727C26.2455 40.2727 22 41.3364 22 43.4545V45.7273H34.7273V43.4545C34.7273 41.3364 30.4818 40.2727 28.3636 40.2727ZM35.6364 40.2727C35.3727 40.2727 35.0727 40.2909 34.7545 40.3182C35.8091 41.0818 36.5455 42.1091 36.5455 43.4545V45.7273H42V43.4545C42 41.3364 37.7545 40.2727 35.6364 40.2727Z" fill="black"/>
<path d="M65.914 38V22.49H75.506V24.008H67.718V29.42H75.066V30.938H67.718V38H65.914ZM81.0027 38.198C79.9174 38.198 79.0961 37.8827 78.5387 37.252C77.9961 36.6067 77.7247 35.6753 77.7247 34.458V22.49H79.5067V34.326C79.5067 35.8953 80.1301 36.68 81.3767 36.68C81.7434 36.68 82.0734 36.636 82.3667 36.548L82.3227 38.044C81.8681 38.1467 81.4281 38.198 81.0027 38.198ZM88.0185 38.198C85.4518 38.198 84.1685 36.7827 84.1685 33.952V27.308H85.9505V33.93C85.9505 34.8833 86.1412 35.5873 86.5225 36.042C86.9185 36.4967 87.5345 36.724 88.3705 36.724C89.2798 36.724 90.0205 36.4233 90.5925 35.822C91.1645 35.206 91.4505 34.392 91.4505 33.38V27.308H93.2325V38H91.4945V36.196C91.1572 36.8413 90.6805 37.34 90.0645 37.692C89.4632 38.0293 88.7812 38.198 88.0185 38.198ZM100.857 38.198C99.5952 38.198 98.6492 37.868 98.0185 37.208C97.3879 36.5333 97.0725 35.5653 97.0725 34.304V28.694H94.9825V27.308H97.0725V24.03H98.8545V27.308H102.243V28.694H98.8545V34.128C98.8545 34.964 99.0305 35.602 99.3825 36.042C99.7345 36.4673 100.307 36.68 101.099 36.68C101.333 36.68 101.568 36.6507 101.803 36.592C102.037 36.5333 102.25 36.4747 102.441 36.416L102.749 37.78C102.558 37.8827 102.279 37.978 101.913 38.066C101.546 38.154 101.194 38.198 100.857 38.198ZM108.969 38.198C107.282 38.198 105.947 37.7067 104.965 36.724C103.982 35.7267 103.491 34.3773 103.491 32.676C103.491 31.576 103.711 30.608 104.151 29.772C104.591 28.9213 105.192 28.2687 105.955 27.814C106.732 27.3447 107.627 27.11 108.639 27.11C110.091 27.11 111.227 27.5793 112.049 28.518C112.87 29.442 113.281 30.718 113.281 32.346V33.028H105.229C105.287 34.2453 105.639 35.1767 106.285 35.822C106.93 36.4527 107.825 36.768 108.969 36.768C109.614 36.768 110.23 36.6727 110.817 36.482C111.403 36.2767 111.961 35.9467 112.489 35.492L113.105 36.746C112.621 37.2007 112.005 37.56 111.257 37.824C110.509 38.0733 109.746 38.198 108.969 38.198ZM108.683 28.43C107.671 28.43 106.871 28.7453 106.285 29.376C105.698 30.0067 105.353 30.8353 105.251 31.862H111.741C111.697 30.7767 111.411 29.9333 110.883 29.332C110.369 28.7307 109.636 28.43 108.683 28.43Z" fill="#212529"/>
<path d="M66.46 58L64.288 52.168H65.308L66.952 56.86L68.656 52.168H69.484L71.164 56.872L72.832 52.168H73.804L71.62 58H70.696L69.052 53.476L67.396 58H66.46ZM77.3438 58.108C76.7758 58.108 76.2838 57.984 75.8678 57.736C75.4518 57.488 75.1278 57.14 74.8958 56.692C74.6718 56.236 74.5598 55.7 74.5598 55.084C74.5598 54.468 74.6718 53.936 74.8958 53.488C75.1278 53.032 75.4518 52.68 75.8678 52.432C76.2838 52.184 76.7758 52.06 77.3438 52.06C77.9038 52.06 78.3918 52.184 78.8078 52.432C79.2318 52.68 79.5558 53.032 79.7798 53.488C80.0118 53.936 80.1278 54.468 80.1278 55.084C80.1278 55.7 80.0118 56.236 79.7798 56.692C79.5558 57.14 79.2318 57.488 78.8078 57.736C78.3918 57.984 77.9038 58.108 77.3438 58.108ZM77.3438 57.328C77.8878 57.328 78.3238 57.136 78.6518 56.752C78.9798 56.36 79.1438 55.804 79.1438 55.084C79.1438 54.356 78.9798 53.8 78.6518 53.416C78.3238 53.032 77.8878 52.84 77.3438 52.84C76.7918 52.84 76.3518 53.032 76.0238 53.416C75.7038 53.8 75.5438 54.356 75.5438 55.084C75.5438 55.804 75.7038 56.36 76.0238 56.752C76.3518 57.136 76.7918 57.328 77.3438 57.328ZM81.5878 58V52.168H82.5358V53.212C82.8478 52.508 83.4878 52.12 84.4558 52.048L84.8038 52.012L84.8758 52.852L84.2638 52.924C83.7118 52.972 83.2918 53.148 83.0038 53.452C82.7158 53.748 82.5718 54.156 82.5718 54.676V58H81.5878ZM87.798 58.108C87.342 58.108 86.91 58.044 86.502 57.916C86.094 57.788 85.758 57.608 85.494 57.376L85.806 56.692C86.094 56.924 86.41 57.096 86.754 57.208C87.106 57.312 87.462 57.364 87.822 57.364C88.278 57.364 88.622 57.28 88.854 57.112C89.086 56.944 89.202 56.716 89.202 56.428C89.202 56.204 89.126 56.028 88.974 55.9C88.822 55.764 88.582 55.66 88.254 55.588L87.162 55.348C86.17 55.132 85.674 54.62 85.674 53.812C85.674 53.284 85.882 52.86 86.298 52.54C86.722 52.22 87.274 52.06 87.954 52.06C88.354 52.06 88.734 52.124 89.094 52.252C89.462 52.372 89.766 52.552 90.006 52.792L89.682 53.476C89.45 53.26 89.178 53.096 88.866 52.984C88.562 52.864 88.258 52.804 87.954 52.804C87.506 52.804 87.166 52.892 86.934 53.068C86.702 53.244 86.586 53.476 86.586 53.764C86.586 54.212 86.882 54.5 87.474 54.628L88.566 54.856C89.078 54.968 89.466 55.148 89.73 55.396C89.994 55.636 90.126 55.964 90.126 56.38C90.126 56.916 89.914 57.34 89.49 57.652C89.066 57.956 88.502 58.108 87.798 58.108ZM93.8887 58.108C93.2007 58.108 92.6847 57.928 92.3407 57.568C91.9967 57.2 91.8247 56.672 91.8247 55.984V52.924H90.6847V52.168H91.8247V50.38H92.7967V52.168H94.6447V52.924H92.7967V55.888C92.7967 56.344 92.8927 56.692 93.0847 56.932C93.2767 57.164 93.5887 57.28 94.0207 57.28C94.1487 57.28 94.2767 57.264 94.4047 57.232C94.5327 57.2 94.6487 57.168 94.7527 57.136L94.9207 57.88C94.8167 57.936 94.6647 57.988 94.4647 58.036C94.2647 58.084 94.0727 58.108 93.8887 58.108ZM98.8261 60.16V52.168H99.7741V53.212C99.9501 52.852 100.21 52.572 100.554 52.372C100.906 52.164 101.314 52.06 101.778 52.06C102.298 52.06 102.75 52.184 103.134 52.432C103.526 52.672 103.826 53.02 104.034 53.476C104.25 53.924 104.358 54.46 104.358 55.084C104.358 55.7 104.25 56.236 104.034 56.692C103.826 57.14 103.526 57.488 103.134 57.736C102.75 57.984 102.298 58.108 101.778 58.108C101.33 58.108 100.93 58.008 100.578 57.808C100.226 57.608 99.9661 57.332 99.7981 56.98V60.16H98.8261ZM101.574 57.328C102.118 57.328 102.554 57.136 102.882 56.752C103.21 56.36 103.374 55.804 103.374 55.084C103.374 54.356 103.21 53.8 102.882 53.416C102.554 53.032 102.118 52.84 101.574 52.84C101.03 52.84 100.594 53.032 100.266 53.416C99.9381 53.8 99.7741 54.356 99.7741 55.084C99.7741 55.804 99.9381 56.36 100.266 56.752C100.594 57.136 101.03 57.328 101.574 57.328ZM108.45 58.108C107.53 58.108 106.802 57.84 106.266 57.304C105.73 56.76 105.462 56.024 105.462 55.096C105.462 54.496 105.582 53.968 105.822 53.512C106.062 53.048 106.39 52.692 106.806 52.444C107.23 52.188 107.718 52.06 108.27 52.06C109.062 52.06 109.682 52.316 110.13 52.828C110.578 53.332 110.802 54.028 110.802 54.916V55.288H106.41C106.442 55.952 106.634 56.46 106.986 56.812C107.338 57.156 107.826 57.328 108.45 57.328C108.802 57.328 109.138 57.276 109.458 57.172C109.778 57.06 110.082 56.88 110.37 56.632L110.706 57.316C110.442 57.564 110.106 57.76 109.698 57.904C109.29 58.04 108.874 58.108 108.45 58.108ZM108.294 52.78C107.742 52.78 107.306 52.952 106.986 53.296C106.666 53.64 106.478 54.092 106.422 54.652H109.962C109.938 54.06 109.782 53.6 109.494 53.272C109.214 52.944 108.814 52.78 108.294 52.78ZM112.209 58V52.168H113.157V53.212C113.469 52.508 114.109 52.12 115.077 52.048L115.425 52.012L115.497 52.852L114.885 52.924C114.333 52.972 113.913 53.148 113.625 53.452C113.337 53.748 113.193 54.156 113.193 54.676V58H112.209ZM117.138 58V52.924H115.986V52.168H117.138V51.964C117.138 51.188 117.33 50.6 117.714 50.2C118.106 49.8 118.706 49.576 119.514 49.528L119.982 49.504L120.066 50.248L119.514 50.284C119.018 50.324 118.658 50.472 118.434 50.728C118.218 50.984 118.11 51.356 118.11 51.844V52.168H119.79V52.924H118.11V58H117.138ZM123.082 58.108C122.514 58.108 122.022 57.984 121.606 57.736C121.19 57.488 120.866 57.14 120.634 56.692C120.41 56.236 120.298 55.7 120.298 55.084C120.298 54.468 120.41 53.936 120.634 53.488C120.866 53.032 121.19 52.68 121.606 52.432C122.022 52.184 122.514 52.06 123.082 52.06C123.642 52.06 124.13 52.184 124.546 52.432C124.97 52.68 125.294 53.032 125.518 53.488C125.75 53.936 125.866 54.468 125.866 55.084C125.866 55.7 125.75 56.236 125.518 56.692C125.294 57.14 124.97 57.488 124.546 57.736C124.13 57.984 123.642 58.108 123.082 58.108ZM123.082 57.328C123.626 57.328 124.062 57.136 124.39 56.752C124.718 56.36 124.882 55.804 124.882 55.084C124.882 54.356 124.718 53.8 124.39 53.416C124.062 53.032 123.626 52.84 123.082 52.84C122.53 52.84 122.09 53.032 121.762 53.416C121.442 53.8 121.282 54.356 121.282 55.084C121.282 55.804 121.442 56.36 121.762 56.752C122.09 57.136 122.53 57.328 123.082 57.328ZM127.326 58V52.168H128.274V53.212C128.586 52.508 129.226 52.12 130.194 52.048L130.542 52.012L130.614 52.852L130.002 52.924C129.45 52.972 129.03 53.148 128.742 53.452C128.454 53.748 128.31 54.156 128.31 54.676V58H127.326ZM131.651 58V52.168H132.599V53.152C132.775 52.8 133.019 52.532 133.331 52.348C133.643 52.156 134.007 52.06 134.423 52.06C135.335 52.06 135.919 52.456 136.175 53.248C136.351 52.88 136.611 52.592 136.955 52.384C137.299 52.168 137.695 52.06 138.143 52.06C139.439 52.06 140.087 52.828 140.087 54.364V58H139.115V54.412C139.115 53.876 139.019 53.484 138.827 53.236C138.643 52.98 138.335 52.852 137.903 52.852C137.431 52.852 137.055 53.02 136.775 53.356C136.495 53.692 136.355 54.14 136.355 54.7V58H135.383V54.412C135.383 53.876 135.287 53.484 135.095 53.236C134.911 52.98 134.603 52.852 134.171 52.852C133.691 52.852 133.311 53.02 133.031 53.356C132.759 53.692 132.623 54.14 132.623 54.7V58H131.651ZM141.784 50.716V49.624H142.984V50.716H141.784ZM141.904 58V52.168H142.876V58H141.904ZM144.693 58V52.168H145.641V53.164C145.833 52.796 146.105 52.52 146.457 52.336C146.809 52.152 147.205 52.06 147.645 52.06C149.029 52.06 149.721 52.828 149.721 54.364V58H148.749V54.424C148.749 53.88 148.641 53.484 148.425 53.236C148.217 52.98 147.881 52.852 147.417 52.852C146.881 52.852 146.453 53.02 146.133 53.356C145.821 53.684 145.665 54.124 145.665 54.676V58H144.693ZM154.094 60.268C153.59 60.268 153.114 60.2 152.666 60.064C152.226 59.936 151.834 59.74 151.49 59.476L151.814 58.768C152.174 59.024 152.53 59.208 152.882 59.32C153.242 59.432 153.63 59.488 154.046 59.488C155.198 59.488 155.774 58.896 155.774 57.712V56.68C155.606 57.048 155.342 57.34 154.982 57.556C154.63 57.764 154.226 57.868 153.77 57.868C153.234 57.868 152.77 57.744 152.378 57.496C151.986 57.248 151.682 56.908 151.466 56.476C151.258 56.036 151.154 55.528 151.154 54.952C151.154 54.376 151.258 53.872 151.466 53.44C151.682 53 151.986 52.66 152.378 52.42C152.77 52.18 153.234 52.06 153.77 52.06C154.226 52.06 154.63 52.164 154.982 52.372C155.342 52.58 155.606 52.864 155.774 53.224V52.168H156.722V57.58C156.722 58.476 156.498 59.148 156.05 59.596C155.61 60.044 154.958 60.268 154.094 60.268ZM153.95 57.076C154.51 57.076 154.954 56.884 155.282 56.5C155.61 56.116 155.774 55.6 155.774 54.952C155.774 54.304 155.61 53.792 155.282 53.416C154.954 53.032 154.51 52.84 153.95 52.84C153.398 52.84 152.958 53.032 152.63 53.416C152.302 53.792 152.138 54.304 152.138 54.952C152.138 55.6 152.302 56.116 152.63 56.5C152.958 56.884 153.398 57.076 153.95 57.076ZM164.099 58.108C163.515 58.108 163.011 57.984 162.587 57.736C162.163 57.48 161.835 57.124 161.603 56.668C161.379 56.204 161.267 55.664 161.267 55.048C161.267 54.12 161.519 53.392 162.023 52.864C162.527 52.328 163.219 52.06 164.099 52.06C164.459 52.06 164.815 52.124 165.167 52.252C165.519 52.38 165.811 52.56 166.043 52.792L165.707 53.5C165.475 53.276 165.219 53.112 164.939 53.008C164.667 52.904 164.407 52.852 164.159 52.852C163.551 52.852 163.083 53.044 162.755 53.428C162.427 53.804 162.263 54.348 162.263 55.06C162.263 55.756 162.427 56.308 162.755 56.716C163.083 57.116 163.551 57.316 164.159 57.316C164.407 57.316 164.667 57.264 164.939 57.16C165.219 57.056 165.475 56.888 165.707 56.656L166.043 57.364C165.811 57.596 165.515 57.78 165.155 57.916C164.803 58.044 164.451 58.108 164.099 58.108ZM169.488 58.108C168.92 58.108 168.428 57.984 168.012 57.736C167.596 57.488 167.272 57.14 167.04 56.692C166.816 56.236 166.704 55.7 166.704 55.084C166.704 54.468 166.816 53.936 167.04 53.488C167.272 53.032 167.596 52.68 168.012 52.432C168.428 52.184 168.92 52.06 169.488 52.06C170.048 52.06 170.536 52.184 170.952 52.432C171.376 52.68 171.7 53.032 171.924 53.488C172.156 53.936 172.272 54.468 172.272 55.084C172.272 55.7 172.156 56.236 171.924 56.692C171.7 57.14 171.376 57.488 170.952 57.736C170.536 57.984 170.048 58.108 169.488 58.108ZM169.488 57.328C170.032 57.328 170.468 57.136 170.796 56.752C171.124 56.36 171.288 55.804 171.288 55.084C171.288 54.356 171.124 53.8 170.796 53.416C170.468 53.032 170.032 52.84 169.488 52.84C168.936 52.84 168.496 53.032 168.168 53.416C167.848 53.8 167.688 54.356 167.688 55.084C167.688 55.804 167.848 56.36 168.168 56.752C168.496 57.136 168.936 57.328 169.488 57.328ZM175.796 58.108C174.396 58.108 173.696 57.336 173.696 55.792V52.168H174.668V55.78C174.668 56.3 174.772 56.684 174.98 56.932C175.196 57.18 175.532 57.304 175.988 57.304C176.484 57.304 176.888 57.14 177.2 56.812C177.512 56.476 177.668 56.032 177.668 55.48V52.168H178.64V58H177.692V57.016C177.508 57.368 177.248 57.64 176.912 57.832C176.584 58.016 176.212 58.108 175.796 58.108ZM180.459 58V52.168H181.407V53.212C181.719 52.508 182.359 52.12 183.327 52.048L183.675 52.012L183.747 52.852L183.135 52.924C182.583 52.972 182.163 53.148 181.875 53.452C181.587 53.748 181.443 54.156 181.443 54.676V58H180.459ZM186.669 58.108C186.213 58.108 185.781 58.044 185.373 57.916C184.965 57.788 184.629 57.608 184.365 57.376L184.677 56.692C184.965 56.924 185.281 57.096 185.625 57.208C185.977 57.312 186.333 57.364 186.693 57.364C187.149 57.364 187.493 57.28 187.725 57.112C187.957 56.944 188.073 56.716 188.073 56.428C188.073 56.204 187.997 56.028 187.845 55.9C187.693 55.764 187.453 55.66 187.125 55.588L186.033 55.348C185.041 55.132 184.545 54.62 184.545 53.812C184.545 53.284 184.753 52.86 185.169 52.54C185.593 52.22 186.145 52.06 186.825 52.06C187.225 52.06 187.605 52.124 187.965 52.252C188.333 52.372 188.637 52.552 188.877 52.792L188.553 53.476C188.321 53.26 188.049 53.096 187.737 52.984C187.433 52.864 187.129 52.804 186.825 52.804C186.377 52.804 186.037 52.892 185.805 53.068C185.573 53.244 185.457 53.476 185.457 53.764C185.457 54.212 185.753 54.5 186.345 54.628L187.437 54.856C187.949 54.968 188.337 55.148 188.601 55.396C188.865 55.636 188.997 55.964 188.997 56.38C188.997 56.916 188.785 57.34 188.361 57.652C187.937 57.956 187.373 58.108 186.669 58.108ZM193.106 58.108C192.186 58.108 191.458 57.84 190.922 57.304C190.386 56.76 190.118 56.024 190.118 55.096C190.118 54.496 190.238 53.968 190.478 53.512C190.718 53.048 191.046 52.692 191.462 52.444C191.886 52.188 192.374 52.06 192.926 52.06C193.718 52.06 194.338 52.316 194.786 52.828C195.234 53.332 195.458 54.028 195.458 54.916V55.288H191.066C191.098 55.952 191.29 56.46 191.642 56.812C191.994 57.156 192.482 57.328 193.106 57.328C193.458 57.328 193.794 57.276 194.114 57.172C194.434 57.06 194.738 56.88 195.026 56.632L195.362 57.316C195.098 57.564 194.762 57.76 194.354 57.904C193.946 58.04 193.53 58.108 193.106 58.108ZM192.95 52.78C192.398 52.78 191.962 52.952 191.642 53.296C191.322 53.64 191.134 54.092 191.078 54.652H194.618C194.594 54.06 194.438 53.6 194.15 53.272C193.87 52.944 193.47 52.78 192.95 52.78Z" fill="#83858B"/>
<path d="M197.763 79L194.991 72.655H195.783L198.114 78.064L200.436 72.655H201.21L198.429 79H197.763ZM201.799 73.537V72.718H202.699V73.537H201.799ZM201.889 79V74.626H202.618V79H201.889ZM205.952 79.081C205.262 79.081 204.716 78.88 204.314 78.478C203.912 78.07 203.711 77.518 203.711 76.822C203.711 76.372 203.801 75.976 203.981 75.634C204.161 75.286 204.407 75.019 204.719 74.833C205.037 74.641 205.403 74.545 205.817 74.545C206.411 74.545 206.876 74.737 207.212 75.121C207.548 75.499 207.716 76.021 207.716 76.687V76.966H204.422C204.446 77.464 204.59 77.845 204.854 78.109C205.118 78.367 205.484 78.496 205.952 78.496C206.216 78.496 206.468 78.457 206.708 78.379C206.948 78.295 207.176 78.16 207.392 77.974L207.644 78.487C207.446 78.673 207.194 78.82 206.888 78.928C206.582 79.03 206.27 79.081 205.952 79.081ZM205.835 75.085C205.421 75.085 205.094 75.214 204.854 75.472C204.614 75.73 204.473 76.069 204.431 76.489H207.086C207.068 76.045 206.951 75.7 206.735 75.454C206.525 75.208 206.225 75.085 205.835 75.085ZM209.879 79L208.25 74.626H209.015L210.248 78.145L211.526 74.626H212.147L213.407 78.154L214.658 74.626H215.387L213.749 79H213.056L211.823 75.607L210.581 79H209.879Z" fill="#B33086"/>
</svg>
