<svg width="232" height="98" viewBox="0 0 232 98" fill="none" xmlns="http://www.w3.org/2000/svg">
<rect width="232" height="98" rx="6" fill="white"/>
<rect x="16" y="23" width="32" height="32" rx="16" fill="#B2EECF"/>
<path d="M35.6364 38.4545C37.1455 38.4545 38.3546 37.2364 38.3546 35.7273C38.3546 34.2182 37.1455 33 35.6364 33C34.1273 33 32.9091 34.2182 32.9091 35.7273C32.9091 37.2364 34.1273 38.4545 35.6364 38.4545ZM28.3637 38.4545C29.8727 38.4545 31.0818 37.2364 31.0818 35.7273C31.0818 34.2182 29.8727 33 28.3637 33C26.8546 33 25.6364 34.2182 25.6364 35.7273C25.6364 37.2364 26.8546 38.4545 28.3637 38.4545ZM28.3637 40.2727C26.2455 40.2727 22 41.3364 22 43.4545V45.7273H34.7273V43.4545C34.7273 41.3364 30.4818 40.2727 28.3637 40.2727ZM35.6364 40.2727C35.3727 40.2727 35.0727 40.2909 34.7546 40.3182C35.8091 41.0818 36.5455 42.1091 36.5455 43.4545V45.7273H42V43.4545C42 41.3364 37.7546 40.2727 35.6364 40.2727Z" fill="black"/>
<path d="M66.728 38V36.46H70.27V24.668L67.476 26.428L66.706 25.086L70.776 22.49H72.074V36.46H75.396V38H66.728ZM84.3194 38.198C82.4861 38.198 81.0707 37.538 80.0734 36.218C79.0907 34.8833 78.5994 33.0207 78.5994 30.63C78.5994 27.946 79.1494 25.8853 80.2494 24.448C81.3494 23.0107 82.8894 22.292 84.8694 22.292C85.6614 22.292 86.4534 22.4607 87.2454 22.798C88.0521 23.1353 88.7121 23.59 89.2254 24.162L88.5654 25.57C88.0227 25.0127 87.4287 24.5947 86.7834 24.316C86.1527 24.0373 85.5001 23.898 84.8254 23.898C83.3881 23.898 82.2807 24.4333 81.5034 25.504C80.7407 26.5747 80.3594 28.166 80.3594 30.278V31.356C80.6381 30.388 81.1514 29.6327 81.8994 29.09C82.6621 28.5473 83.5567 28.276 84.5834 28.276C85.4927 28.276 86.2994 28.4887 87.0034 28.914C87.7074 29.3247 88.2574 29.8967 88.6534 30.63C89.0494 31.3633 89.2474 32.2067 89.2474 33.16C89.2474 34.1427 89.0347 35.0153 88.6094 35.778C88.1987 36.526 87.6194 37.12 86.8714 37.56C86.1381 37.9853 85.2874 38.198 84.3194 38.198ZM84.2094 36.658C85.1921 36.658 85.9841 36.3427 86.5854 35.712C87.2014 35.0813 87.5094 34.2527 87.5094 33.226C87.5094 32.214 87.2014 31.3927 86.5854 30.762C85.9841 30.1167 85.1921 29.794 84.2094 29.794C83.2267 29.794 82.4274 30.1167 81.8114 30.762C81.2101 31.3927 80.9094 32.214 80.9094 33.226C80.9094 34.2527 81.2101 35.0813 81.8114 35.712C82.4274 36.3427 83.2267 36.658 84.2094 36.658ZM98.6768 38V34.678H91.5268V33.314L98.9848 22.49H100.503V33.138H102.813V34.678H100.503V38H98.6768ZM98.6768 33.138V25.46L93.3968 33.138H98.6768Z" fill="#212529"/>
<path d="M67.252 58.108C66.564 58.108 66.048 57.928 65.704 57.568C65.36 57.2 65.188 56.672 65.188 55.984V52.924H64.048V52.168H65.188V50.38H66.16V52.168H68.008V52.924H66.16V55.888C66.16 56.344 66.256 56.692 66.448 56.932C66.64 57.164 66.952 57.28 67.384 57.28C67.512 57.28 67.64 57.264 67.768 57.232C67.896 57.2 68.012 57.168 68.116 57.136L68.284 57.88C68.18 57.936 68.028 57.988 67.828 58.036C67.628 58.084 67.436 58.108 67.252 58.108ZM71.4727 58.108C70.9047 58.108 70.4127 57.984 69.9967 57.736C69.5807 57.488 69.2567 57.14 69.0247 56.692C68.8007 56.236 68.6887 55.7 68.6887 55.084C68.6887 54.468 68.8007 53.936 69.0247 53.488C69.2567 53.032 69.5807 52.68 69.9967 52.432C70.4127 52.184 70.9047 52.06 71.4727 52.06C72.0327 52.06 72.5207 52.184 72.9367 52.432C73.3607 52.68 73.6847 53.032 73.9087 53.488C74.1407 53.936 74.2567 54.468 74.2567 55.084C74.2567 55.7 74.1407 56.236 73.9087 56.692C73.6847 57.14 73.3607 57.488 72.9367 57.736C72.5207 57.984 72.0327 58.108 71.4727 58.108ZM71.4727 57.328C72.0167 57.328 72.4527 57.136 72.7807 56.752C73.1087 56.36 73.2727 55.804 73.2727 55.084C73.2727 54.356 73.1087 53.8 72.7807 53.416C72.4527 53.032 72.0167 52.84 71.4727 52.84C70.9207 52.84 70.4807 53.032 70.1527 53.416C69.8327 53.8 69.6727 54.356 69.6727 55.084C69.6727 55.804 69.8327 56.36 70.1527 56.752C70.4807 57.136 70.9207 57.328 71.4727 57.328ZM77.9981 58.108C77.3101 58.108 76.7941 57.928 76.4501 57.568C76.1061 57.2 75.9341 56.672 75.9341 55.984V52.924H74.7941V52.168H75.9341V50.38H76.9061V52.168H78.7541V52.924H76.9061V55.888C76.9061 56.344 77.0021 56.692 77.1941 56.932C77.3861 57.164 77.6981 57.28 78.1301 57.28C78.2581 57.28 78.3861 57.264 78.5141 57.232C78.6421 57.2 78.7581 57.168 78.8621 57.136L79.0301 57.88C78.9261 57.936 78.7741 57.988 78.5741 58.036C78.3741 58.084 78.1821 58.108 77.9981 58.108ZM81.6894 58.108C81.2894 58.108 80.9294 58.032 80.6094 57.88C80.2974 57.72 80.0494 57.504 79.8654 57.232C79.6814 56.96 79.5894 56.656 79.5894 56.32C79.5894 55.896 79.6974 55.56 79.9134 55.312C80.1374 55.064 80.5014 54.888 81.0054 54.784C81.5174 54.672 82.2134 54.616 83.0934 54.616H83.4774V54.244C83.4774 53.748 83.3734 53.392 83.1654 53.176C82.9654 52.952 82.6414 52.84 82.1934 52.84C81.8414 52.84 81.5014 52.892 81.1734 52.996C80.8454 53.092 80.5094 53.252 80.1654 53.476L79.8294 52.768C80.1334 52.552 80.5014 52.38 80.9334 52.252C81.3734 52.124 81.7934 52.06 82.1934 52.06C82.9454 52.06 83.5014 52.244 83.8614 52.612C84.2294 52.98 84.4134 53.552 84.4134 54.328V58H83.5014V56.992C83.3494 57.336 83.1134 57.608 82.7934 57.808C82.4814 58.008 82.1134 58.108 81.6894 58.108ZM81.8454 57.376C82.3254 57.376 82.7174 57.212 83.0214 56.884C83.3254 56.548 83.4774 56.124 83.4774 55.612V55.252H83.1054C82.4574 55.252 81.9454 55.284 81.5694 55.348C81.2014 55.404 80.9414 55.508 80.7894 55.66C80.6454 55.804 80.5734 56.004 80.5734 56.26C80.5734 56.588 80.6854 56.856 80.9094 57.064C81.1414 57.272 81.4534 57.376 81.8454 57.376ZM88.0047 58.108C87.4127 58.108 86.9647 57.936 86.6607 57.592C86.3647 57.24 86.2167 56.732 86.2167 56.068V49.54H87.1887V55.996C87.1887 56.852 87.5287 57.28 88.2087 57.28C88.4087 57.28 88.5887 57.256 88.7487 57.208L88.7247 58.024C88.4767 58.08 88.2367 58.108 88.0047 58.108ZM92.8495 58V52.168H93.7975V53.164C93.9895 52.796 94.2615 52.52 94.6135 52.336C94.9655 52.152 95.3615 52.06 95.8015 52.06C97.1855 52.06 97.8775 52.828 97.8775 54.364V58H96.9055V54.424C96.9055 53.88 96.7975 53.484 96.5815 53.236C96.3735 52.98 96.0375 52.852 95.5735 52.852C95.0375 52.852 94.6095 53.02 94.2895 53.356C93.9775 53.684 93.8215 54.124 93.8215 54.676V58H92.8495ZM101.734 58.108C100.334 58.108 99.6338 57.336 99.6338 55.792V52.168H100.606V55.78C100.606 56.3 100.71 56.684 100.918 56.932C101.134 57.18 101.47 57.304 101.926 57.304C102.422 57.304 102.826 57.14 103.138 56.812C103.45 56.476 103.606 56.032 103.606 55.48V52.168H104.578V58H103.63V57.016C103.446 57.368 103.186 57.64 102.85 57.832C102.522 58.016 102.15 58.108 101.734 58.108ZM106.42 58V52.168H107.368V53.152C107.544 52.8 107.788 52.532 108.1 52.348C108.412 52.156 108.776 52.06 109.192 52.06C110.104 52.06 110.688 52.456 110.944 53.248C111.12 52.88 111.38 52.592 111.724 52.384C112.068 52.168 112.464 52.06 112.912 52.06C114.208 52.06 114.856 52.828 114.856 54.364V58H113.884V54.412C113.884 53.876 113.788 53.484 113.596 53.236C113.412 52.98 113.104 52.852 112.672 52.852C112.2 52.852 111.824 53.02 111.544 53.356C111.264 53.692 111.124 54.14 111.124 54.7V58H110.152V54.412C110.152 53.876 110.056 53.484 109.864 53.236C109.68 52.98 109.372 52.852 108.94 52.852C108.46 52.852 108.08 53.02 107.8 53.356C107.528 53.692 107.392 54.14 107.392 54.7V58H106.42ZM119.626 58.108C119.162 58.108 118.754 58.004 118.402 57.796C118.058 57.588 117.798 57.304 117.622 56.944V58H116.674V49.54H117.646V53.176C117.814 52.832 118.074 52.56 118.426 52.36C118.778 52.16 119.178 52.06 119.626 52.06C120.146 52.06 120.598 52.184 120.982 52.432C121.374 52.672 121.674 53.02 121.882 53.476C122.098 53.924 122.206 54.46 122.206 55.084C122.206 55.7 122.098 56.236 121.882 56.692C121.674 57.14 121.374 57.488 120.982 57.736C120.598 57.984 120.146 58.108 119.626 58.108ZM119.422 57.328C119.966 57.328 120.402 57.136 120.73 56.752C121.058 56.36 121.222 55.804 121.222 55.084C121.222 54.356 121.058 53.8 120.73 53.416C120.402 53.032 119.966 52.84 119.422 52.84C118.878 52.84 118.442 53.032 118.114 53.416C117.786 53.8 117.622 54.356 117.622 55.084C117.622 55.804 117.786 56.36 118.114 56.752C118.442 57.136 118.878 57.328 119.422 57.328ZM126.298 58.108C125.378 58.108 124.65 57.84 124.114 57.304C123.578 56.76 123.31 56.024 123.31 55.096C123.31 54.496 123.43 53.968 123.67 53.512C123.91 53.048 124.238 52.692 124.654 52.444C125.078 52.188 125.566 52.06 126.118 52.06C126.91 52.06 127.53 52.316 127.978 52.828C128.426 53.332 128.65 54.028 128.65 54.916V55.288H124.258C124.29 55.952 124.482 56.46 124.834 56.812C125.186 57.156 125.674 57.328 126.298 57.328C126.65 57.328 126.986 57.276 127.306 57.172C127.626 57.06 127.93 56.88 128.218 56.632L128.554 57.316C128.29 57.564 127.954 57.76 127.546 57.904C127.138 58.04 126.722 58.108 126.298 58.108ZM126.142 52.78C125.59 52.78 125.154 52.952 124.834 53.296C124.514 53.64 124.326 54.092 124.27 54.652H127.81C127.786 54.06 127.63 53.6 127.342 53.272C127.062 52.944 126.662 52.78 126.142 52.78ZM130.057 58V52.168H131.005V53.212C131.317 52.508 131.957 52.12 132.925 52.048L133.273 52.012L133.345 52.852L132.733 52.924C132.181 52.972 131.761 53.148 131.473 53.452C131.185 53.748 131.041 54.156 131.041 54.676V58H130.057ZM139.863 58.108C139.295 58.108 138.803 57.984 138.387 57.736C137.971 57.488 137.647 57.14 137.415 56.692C137.191 56.236 137.079 55.7 137.079 55.084C137.079 54.468 137.191 53.936 137.415 53.488C137.647 53.032 137.971 52.68 138.387 52.432C138.803 52.184 139.295 52.06 139.863 52.06C140.423 52.06 140.911 52.184 141.327 52.432C141.751 52.68 142.075 53.032 142.299 53.488C142.531 53.936 142.647 54.468 142.647 55.084C142.647 55.7 142.531 56.236 142.299 56.692C142.075 57.14 141.751 57.488 141.327 57.736C140.911 57.984 140.423 58.108 139.863 58.108ZM139.863 57.328C140.407 57.328 140.843 57.136 141.171 56.752C141.499 56.36 141.663 55.804 141.663 55.084C141.663 54.356 141.499 53.8 141.171 53.416C140.843 53.032 140.407 52.84 139.863 52.84C139.311 52.84 138.871 53.032 138.543 53.416C138.223 53.8 138.063 54.356 138.063 55.084C138.063 55.804 138.223 56.36 138.543 56.752C138.871 57.136 139.311 57.328 139.863 57.328ZM144.361 58V52.924H143.209V52.168H144.361V51.964C144.361 51.188 144.553 50.6 144.937 50.2C145.329 49.8 145.929 49.576 146.737 49.528L147.205 49.504L147.289 50.248L146.737 50.284C146.241 50.324 145.881 50.472 145.657 50.728C145.441 50.984 145.333 51.356 145.333 51.844V52.168H147.013V52.924H145.333V58H144.361ZM153.095 58.108C152.639 58.108 152.207 58.044 151.799 57.916C151.391 57.788 151.055 57.608 150.791 57.376L151.103 56.692C151.391 56.924 151.707 57.096 152.051 57.208C152.403 57.312 152.759 57.364 153.119 57.364C153.575 57.364 153.919 57.28 154.151 57.112C154.383 56.944 154.499 56.716 154.499 56.428C154.499 56.204 154.423 56.028 154.271 55.9C154.119 55.764 153.879 55.66 153.551 55.588L152.459 55.348C151.467 55.132 150.971 54.62 150.971 53.812C150.971 53.284 151.179 52.86 151.595 52.54C152.019 52.22 152.571 52.06 153.251 52.06C153.651 52.06 154.031 52.124 154.391 52.252C154.759 52.372 155.063 52.552 155.303 52.792L154.979 53.476C154.747 53.26 154.475 53.096 154.163 52.984C153.859 52.864 153.555 52.804 153.251 52.804C152.803 52.804 152.463 52.892 152.231 53.068C151.999 53.244 151.883 53.476 151.883 53.764C151.883 54.212 152.179 54.5 152.771 54.628L153.863 54.856C154.375 54.968 154.763 55.148 155.027 55.396C155.291 55.636 155.423 55.964 155.423 56.38C155.423 56.916 155.211 57.34 154.787 57.652C154.363 57.956 153.799 58.108 153.095 58.108ZM159.186 58.108C158.498 58.108 157.982 57.928 157.638 57.568C157.294 57.2 157.122 56.672 157.122 55.984V52.924H155.982V52.168H157.122V50.38H158.094V52.168H159.942V52.924H158.094V55.888C158.094 56.344 158.19 56.692 158.382 56.932C158.574 57.164 158.886 57.28 159.318 57.28C159.446 57.28 159.574 57.264 159.702 57.232C159.83 57.2 159.946 57.168 160.05 57.136L160.218 57.88C160.114 57.936 159.962 57.988 159.762 58.036C159.562 58.084 159.37 58.108 159.186 58.108ZM163.105 58.108C161.705 58.108 161.005 57.336 161.005 55.792V52.168H161.977V55.78C161.977 56.3 162.081 56.684 162.289 56.932C162.505 57.18 162.841 57.304 163.297 57.304C163.793 57.304 164.197 57.14 164.509 56.812C164.821 56.476 164.977 56.032 164.977 55.48V52.168H165.949V58H165.001V57.016C164.817 57.368 164.557 57.64 164.221 57.832C163.893 58.016 163.521 58.108 163.105 58.108ZM169.987 58.108C169.467 58.108 169.011 57.984 168.619 57.736C168.235 57.488 167.935 57.14 167.719 56.692C167.511 56.236 167.407 55.7 167.407 55.084C167.407 54.46 167.511 53.924 167.719 53.476C167.935 53.02 168.235 52.672 168.619 52.432C169.011 52.184 169.467 52.06 169.987 52.06C170.443 52.06 170.843 52.16 171.187 52.36C171.539 52.56 171.799 52.836 171.967 53.188V49.54H172.939V58H171.991V56.932C171.823 57.3 171.563 57.588 171.211 57.796C170.859 58.004 170.451 58.108 169.987 58.108ZM170.191 57.328C170.735 57.328 171.171 57.136 171.499 56.752C171.827 56.36 171.991 55.804 171.991 55.084C171.991 54.356 171.827 53.8 171.499 53.416C171.171 53.032 170.735 52.84 170.191 52.84C169.639 52.84 169.199 53.032 168.871 53.416C168.551 53.8 168.391 54.356 168.391 55.084C168.391 55.804 168.551 56.36 168.871 56.752C169.199 57.136 169.639 57.328 170.191 57.328ZM177.392 58.108C176.472 58.108 175.744 57.84 175.208 57.304C174.672 56.76 174.404 56.024 174.404 55.096C174.404 54.496 174.524 53.968 174.764 53.512C175.004 53.048 175.332 52.692 175.748 52.444C176.172 52.188 176.66 52.06 177.212 52.06C178.004 52.06 178.624 52.316 179.072 52.828C179.52 53.332 179.744 54.028 179.744 54.916V55.288H175.352C175.384 55.952 175.576 56.46 175.928 56.812C176.28 57.156 176.768 57.328 177.392 57.328C177.744 57.328 178.08 57.276 178.4 57.172C178.72 57.06 179.024 56.88 179.312 56.632L179.648 57.316C179.384 57.564 179.048 57.76 178.64 57.904C178.232 58.04 177.816 58.108 177.392 58.108ZM177.236 52.78C176.684 52.78 176.248 52.952 175.928 53.296C175.608 53.64 175.42 54.092 175.364 54.652H178.904C178.88 54.06 178.724 53.6 178.436 53.272C178.156 52.944 177.756 52.78 177.236 52.78ZM181.15 58V52.168H182.098V53.164C182.29 52.796 182.562 52.52 182.914 52.336C183.266 52.152 183.662 52.06 184.102 52.06C185.486 52.06 186.178 52.828 186.178 54.364V58H185.206V54.424C185.206 53.88 185.098 53.484 184.882 53.236C184.674 52.98 184.338 52.852 183.874 52.852C183.338 52.852 182.91 53.02 182.59 53.356C182.278 53.684 182.122 54.124 182.122 54.676V58H181.15ZM190.311 58.108C189.623 58.108 189.107 57.928 188.763 57.568C188.419 57.2 188.247 56.672 188.247 55.984V52.924H187.107V52.168H188.247V50.38H189.219V52.168H191.067V52.924H189.219V55.888C189.219 56.344 189.315 56.692 189.507 56.932C189.699 57.164 190.011 57.28 190.443 57.28C190.571 57.28 190.699 57.264 190.827 57.232C190.955 57.2 191.071 57.168 191.175 57.136L191.343 57.88C191.239 57.936 191.087 57.988 190.887 58.036C190.687 58.084 190.495 58.108 190.311 58.108ZM194.134 58.108C193.678 58.108 193.246 58.044 192.838 57.916C192.43 57.788 192.094 57.608 191.83 57.376L192.142 56.692C192.43 56.924 192.746 57.096 193.09 57.208C193.442 57.312 193.798 57.364 194.158 57.364C194.614 57.364 194.958 57.28 195.19 57.112C195.422 56.944 195.538 56.716 195.538 56.428C195.538 56.204 195.462 56.028 195.31 55.9C195.158 55.764 194.918 55.66 194.59 55.588L193.498 55.348C192.506 55.132 192.01 54.62 192.01 53.812C192.01 53.284 192.218 52.86 192.634 52.54C193.058 52.22 193.61 52.06 194.29 52.06C194.69 52.06 195.07 52.124 195.43 52.252C195.798 52.372 196.102 52.552 196.342 52.792L196.018 53.476C195.786 53.26 195.514 53.096 195.202 52.984C194.898 52.864 194.594 52.804 194.29 52.804C193.842 52.804 193.502 52.892 193.27 53.068C193.038 53.244 192.922 53.476 192.922 53.764C192.922 54.212 193.218 54.5 193.81 54.628L194.902 54.856C195.414 54.968 195.802 55.148 196.066 55.396C196.33 55.636 196.462 55.964 196.462 56.38C196.462 56.916 196.25 57.34 195.826 57.652C195.402 57.956 194.838 58.108 194.134 58.108Z" fill="#83858B"/>
<path d="M197.763 79L194.991 72.655H195.783L198.114 78.064L200.436 72.655H201.21L198.429 79H197.763ZM201.799 73.537V72.718H202.699V73.537H201.799ZM201.889 79V74.626H202.618V79H201.889ZM205.952 79.081C205.262 79.081 204.716 78.88 204.314 78.478C203.912 78.07 203.711 77.518 203.711 76.822C203.711 76.372 203.801 75.976 203.981 75.634C204.161 75.286 204.407 75.019 204.719 74.833C205.037 74.641 205.403 74.545 205.817 74.545C206.411 74.545 206.876 74.737 207.212 75.121C207.548 75.499 207.716 76.021 207.716 76.687V76.966H204.422C204.446 77.464 204.59 77.845 204.854 78.109C205.118 78.367 205.484 78.496 205.952 78.496C206.216 78.496 206.468 78.457 206.708 78.379C206.948 78.295 207.176 78.16 207.392 77.974L207.644 78.487C207.446 78.673 207.194 78.82 206.888 78.928C206.582 79.03 206.27 79.081 205.952 79.081ZM205.835 75.085C205.421 75.085 205.094 75.214 204.854 75.472C204.614 75.73 204.473 76.069 204.431 76.489H207.086C207.068 76.045 206.951 75.7 206.735 75.454C206.525 75.208 206.225 75.085 205.835 75.085ZM209.879 79L208.25 74.626H209.015L210.248 78.145L211.526 74.626H212.147L213.407 78.154L214.658 74.626H215.387L213.749 79H213.056L211.823 75.607L210.581 79H209.879Z" fill="#B33086"/>
</svg>
